<?xml version="1.0" encoding="utf-8"?>
<!-- Generator: Adobe Illustrator 19.0.0, SVG Export Plug-In . SVG Version: 6.00 Build 0)  -->
<svg version="1.1" id="Layer_1" xmlns="http://www.w3.org/2000/svg" xmlns:xlink="http://www.w3.org/1999/xlink" x="0px" y="0px"
	 viewBox="0 0 3000 2000" style="enable-background:new 0 0 3000 2000;" xml:space="preserve">
<style type="text/css">
	.st0{fill:#ACCFE5;}
	.st1{opacity:0.8;fill:#F1A34F;}
	.st2{fill:#EB9342;}
	.st3{opacity:0.5;fill:#E58435;}
	.st4{fill:#699FF0;}
	.st5{fill:#4A75CB;}
	.st6{fill:#E58435;}
	.st7{fill:#F1A34F;}
	.st8{opacity:0.5;fill:#FFE2CC;}
	.st9{fill:#F7E0CB;}
	.st10{opacity:0.5;fill:#EFCBAB;}
	.st11{fill:#CE732E;}
	.st12{fill:#FCECDB;}
	.st13{fill:#EFCBAB;}
	.st14{fill:#35488B;}
	.st15{fill:#1C468A;}
	.st16{fill:#2B478B;}
	.st17{fill:#6BB7BF;}
	.st18{opacity:0.4;fill:#E9F3FE;}
	.st19{fill:#E8945B;}
	.st20{fill:#BC3F3F;}
	.st21{fill:#163560;}
	.st22{fill:#233862;}
	.st23{fill:#FFB27D;}
	.st24{fill:#A02E2E;}
	.st25{fill:#2C3A64;}
	.st26{fill:#D35C2B;}
	.st27{fill:#AA443E;}
	.st28{fill:#ED985F;}
	.st29{fill:#599DAD;}
	.st30{fill:#EBF2F9;}
	.st31{fill:#FFFFFF;}
	.st32{fill:#D3671E;}
	.st33{fill:#EA9C68;}
	.st34{fill:#F4AC75;}
	.st35{fill:#E9F2FF;}
	.st36{opacity:0.2;fill:#B2CBFD;}
	.st37{fill:#C97C47;}
	.st38{fill:#B2CBFD;}
	.st39{opacity:0.5;fill:#B2CBFD;}
	.st40{fill:#7A97F3;}
	.st41{fill:#699EEE;}
	.st42{fill:#86D1CD;}
	.st43{fill:#2E3552;}
</style>
<g>
	<g>
		<path class="st0" d="M565.8,1456.5c0,0-421.9-191.3-205.7-518.6C476.7,761.4,811.7,744,991.8,853.6
			c76.7,46.7,264.4,199.4,419.4-149.8C1592.5,295.7,2830,325.3,2507.2,934.7c-137.8,260.1,288,280.6,63.2,522.4L565.8,1456.5z"/>
		<g>
			<g>
				<path class="st1" d="M2259.4,1457.1l-92.5-0.1l-48.9-0.1c-19,0-34.5-13.9-34.5-30.8l0.5-304.2c0-16.9,15.6-30.7,34.6-30.7
					l43.4,0.1l98.1,0.1c19,0,34.5,13.9,34.5,30.8l-0.4,304.2C2294,1443.3,2278.4,1457.1,2259.4,1457.1z"/>
				<path class="st2" d="M2279.1,1370.9l-2.4-16l0,0l-2.4-16c-0.6-4.1-3.1-7.6-6.5-9.9c-3.4-2.3-7.9-3.5-12.5-2.9
					c-0.5,0.1-1,0.1-1.5,0.3c1.7-2.2,2.6-4.6,2.9-7.1c3.1,6.7,11.3,10.6,19.5,8.8c9-1.9,14.6-10,12.5-18.1l-4.2-15.7l0,0l-4.2-15.7
					c-1.1-4-3.9-7.3-7.6-9.3c-3.7-2-8.2-2.8-12.7-1.8c-9,1.9-14.6,10-12.5,18.1l6.3,23.7c-1-1.2-2.1-2.4-3.6-3.3
					c-2.9-2-6.3-3-9.7-3.1c1.7-1.9,2.8-4.2,3.3-6.5c0.6-3.1,0.2-6.3-1.4-9.2c1.9-5.6,0-12-5.4-15.9l-28-20.6
					c-7.1-5.3-17.8-4.4-23.7,2c-5.5,5.9-5,14.4,0.7,19.9c-1.5,0-3,0.1-4.5,0.5l-17.5,4.3l0,0l-17.5,4.2c-6.1,1.5-10.5,5.8-11.9,10.9
					l-1.8-3.9l0,0l-7-14.9c-3.6-7.6-13.5-11.3-22-8.1c-8.6,3.2-12.6,12-9.1,19.6l7,14.9l0,0l4.5,9.6c-5.9,2.1-10.3,7.1-10.7,13.2
					l-0.9,16.1l0,0l-0.9,16.1c-0.2,4.1,1.4,8,4.3,10.8c2.9,2.9,7,4.7,11.6,4.9c2,0.1,3.9-0.1,5.7-0.6c-1.7,3.1-2.2,6.7-1.4,10.1
					c-3.1,1.6-5.7,4.1-7.2,7.2l-7,14.9l0,0l-7,14.9c-1.8,3.8-1.6,7.9,0,11.5c1.7,3.6,4.8,6.5,9.1,8.1c6.7,2.5,14.2,0.8,18.8-3.7
					c1.1,2.3,2.8,4.4,5.2,6c7.4,5,18,3.8,23.6-2.8l11.1-12.8l0,0l11.1-12.8c1.5-1.7,2.5-3.7,3-5.7c3.8,0.3,7.8-0.5,11.2-2.5l2.9-1.8
					l-4,4.7l0,0l-11.1,12.8c-5.6,6.6-4.2,16,3.1,21c7.4,5,18,3.8,23.6-2.8l11.1-12.8l0,0l11.1-12.8c0.1-0.2,0.3-0.3,0.4-0.5
					c0.9,1.3,2,2.4,3.2,3.4l-3.9,4.6c-5.6,6.6-4.2,16,3.1,21c7.4,5,18,3.8,23.6-2.8l22.1-25.7c2.8-3.3,3.9-7.3,3.3-11.1
					c-0.6-3.8-2.8-7.4-6.4-9.9c-1.3-0.9-2.6-1.5-4-2c0.2,0,0.4,0,0.6,0C2273.9,1386.7,2280.4,1379.1,2279.1,1370.9z M2127.2,1356.4
					l0.3-5.5c1.1,1.6,2.5,3.1,4.2,4.3c0.7,0.4,1.3,0.8,2.1,1.2l-7.7,4.7C2126.7,1359.6,2127.1,1358.1,2127.2,1356.4z M2240.8,1342.9
					l3.3,21.5c-1.4-2.6-3.6-4.7-6.3-6.2c-3.3-1.8-7.2-2.6-11.2-2.1c1.7-0.9,3.3-2.1,4.6-3.7l9.5-11
					C2240.7,1341.9,2240.8,1342.4,2240.8,1342.9z M2202.5,1284.7l4.2,3.1l-4.4,2.7C2202.9,1288.6,2202.9,1286.6,2202.5,1284.7z
					 M2206.2,1332.2c-0.4-2.3-1.5-4.5-3-6.4c1.3-0.4,2.5-1,3.6-1.7l13.3-8.1L2206.2,1332.2z M2217.1,1360.3
					c-3.6-2.7-8.2-3.9-12.7-3.4l0.4-4c0.8,0.9,1.7,1.7,2.8,2.4c3.7,2.5,8.3,3.5,12.6,2.9C2219.1,1358.8,2218.1,1359.5,2217.1,1360.3
					z M2183.2,1303.5c-3.7,5-3.9,11.6,0.1,16.8c0.1,0.1,0.2,0.2,0.2,0.3c-1.2,0.4-2.4,0.9-3.5,1.6c0.8-2.1,1-4.4,0.7-6.6
					c-0.6-3.8-2.8-7.4-6.4-9.9c0,0,0,0-0.1,0L2183.2,1303.5z M2166.4,1339.6l6.5-7.6c-0.1,0.5-0.2,0.9-0.2,1.4l-1.2,13.9
					c-2.4-2-5.4-3.2-8.6-3.7L2166.4,1339.6L2166.4,1339.6z M2135.9,1403l1.9-4.1c1.4-3,1.6-6.2,0.8-9.1c0.4-0.2,0.8-0.4,1.1-0.6
					l29.9-18.3c0.2-0.1,0.4-0.3,0.6-0.4c0.4,1.5,1,2.8,1.9,4.1l-5.3,3.3c-3.6,2.2-5.9,5.4-6.8,8.9c-5.6-0.5-11.4,1.5-15.1,5.8
					L2135.9,1403z M2215.3,1384.5l0.9,3.5c-1.5-0.6-3.1-1-4.7-1.2L2215.3,1384.5z M2250.9,1388.1l-1.3-4.8l0,0l-0.2-0.9
					c1.8,2,4.2,3.6,6.9,4.5C2254.4,1387,2252.6,1387.4,2250.9,1388.1z M2148.8,1310.7l-9.2,10.6l0,0l-11.1,12.8
					c-0.1,0.1-0.1,0.1-0.1,0.2l0.6-10.2c0-0.3,0-0.5,0-0.8c0.5-0.1,1-0.3,1.5-0.5c6.9-2.5,10.8-8.7,10.3-15
					C2143.2,1309.4,2145.9,1310.4,2148.8,1310.7z"/>
				<path class="st3" d="M2166.9,1457l-48.9-0.1c-19,0-34.5-13.9-34.5-30.8l0.5-304.2c0-16.9,15.6-30.7,34.6-30.7l43.4,0.1
					c3.6,5.5,5.7,12,5.6,19l-0.5,343.6C2167,1455,2167,1456,2166.9,1457z"/>
				<path class="st4" d="M2292.2,1105.8l-131.4-0.2l-74.6-0.1c-3.7,0-6.7-2.7-6.7-6l0-28.7c0-3.3,3-6,6.7-6l74.5,0.1c0,0,0,0,0,0
					l131.5,0.2c3.7,0,6.7,2.7,6.7,6l0,28.7C2298.9,1103.1,2295.9,1105.8,2292.2,1105.8z"/>
				<path class="st5" d="M2160.8,1105.6l-74.6-0.1c-3.7,0-6.7-2.7-6.7-6l0-28.7c0-3.3,3-6,6.7-6l74.5,0.1c0,0,0,0,0,0
					c3.7,0,6.7,2.7,6.7,6l0,28.7C2167.4,1102.9,2164.4,1105.6,2160.8,1105.6z"/>
			</g>
		</g>
		<g>
			<path class="st6" d="M2512.5,1434.1c0,6.4-2.9,12.2-7.7,16.4c-4.7,4.2-11.3,6.8-18.4,6.8h-123.2c-14.3,0-26.1-10.5-26.1-23.2
				c0-6.4,2.9-12.2,7.7-16.4c4.7-4.2,11.2-6.8,18.4-6.8h123.2C2500.8,1410.8,2512.5,1421.3,2512.5,1434.1z"/>
			<path class="st7" d="M2448.9,1434.1c0,6.4-2.9,12.2-7.7,16.4c-4.7,4.2-11.3,6.8-18.4,6.8h-59.7c-14.3,0-26.1-10.5-26.1-23.2
				c0-6.4,2.9-12.2,7.7-16.4c4.7-4.2,11.2-6.8,18.4-6.8h59.7C2437.2,1410.8,2448.9,1421.3,2448.9,1434.1z"/>
			<path class="st8" d="M2488.5,1416H2371c-2,0-3.7,1.5-3.7,3.3v0.7c0,1.8,1.7,3.3,3.7,3.3h117.5c2,0,3.7-1.5,3.7-3.3v-0.7
				C2492.2,1417.5,2490.5,1416,2488.5,1416z"/>
		</g>
		<g>
			<path class="st4" d="M510.2,1435.8l-52.3,3c-10.3,0.6-19.4-6.4-20-15.6l-3.4-46.6c-0.7-9.2,7.2-17.2,17.6-17.8l52.3-3
				c9.5-0.6,17.9,5.3,19.7,13.5c0.2,0.7,0.3,1.4,0.3,2.2l3.4,46.5C528.5,1427.2,520.5,1435.2,510.2,1435.8z"/>
			<path class="st5" d="M506.6,1409.9c-8.4-32-71.9-29-72.2-33.2c-0.7-9.2,7.2-17.2,17.6-17.8l52.3-3c9.5-0.6,17.9,5.3,19.7,13.5
				C517.9,1399.5,510.8,1426,506.6,1409.9z"/>
			<path class="st9" d="M1161.7,1455.1l-402.2-1l-226.9-0.6c-13.1,0-23.9-9.1-24.8-20.7l-4.2-57.2l-0.9-12.9
				c-1.2-16.2,12-30.5,30.1-32.5l215.8-24.2l398.9-44.8l8.8,119.5L1161.7,1455.1z"/>
			<path class="st10" d="M1156.2,1380.7l-395.6-0.2l-240.8-0.1c-6.1,0-11.7-1.8-16.2-4.8l-0.9-12.9c-1.2-16.2,12-30.5,30.1-32.5
				l215.8-24.2l398.9-44.8L1156.2,1380.7z"/>
			<polygon class="st6" points="1188.8,1453.5 1161.7,1455.1 1156.2,1380.7 1147.4,1261.3 1174.6,1259.7 1183.4,1379.9 			"/>
			<path class="st7" d="M759.4,1454.1l-228.4-0.6c-12.3,0-22.4-8.5-23.2-19.4l-4-53.8l-1.6-22.4c-1-13.5,10-25.3,25-27l221.3-24.9
				l5.6,76.6L759.4,1454.1z"/>
			<path class="st2" d="M754.2,1382.7l-239.9-0.6c-3.7,0-7.2-0.6-10.4-1.8l-1.6-22.4c-1-13.5,10-25.3,25-27l221.3-24.9L754.2,1382.7
				z"/>
			<polygon class="st11" points="1183.4,1379.9 1156.2,1380.7 1147.4,1261.3 1174.6,1259.7 			"/>
		</g>
		<g>
			<g>
				<g>
					<path class="st12" d="M1412.8,854.6v310.8c0,19.1-17.5,34.7-39,34.7h-207.6c-5.6,0-10.8-1-15.6-2.9
						c-13.7-5.4-23.3-17.6-23.3-31.7V854.6c0-19.1,17.5-34.7,39-34.7h207.6C1395.3,819.9,1412.8,835.5,1412.8,854.6z"/>
					<path class="st9" d="M1320.9,936.8c-21.9-7.3-33-29.1-24.8-48.6s32.7-29.4,54.6-22.1c21.9,7.3,33,29.1,24.8,48.6
						C1367.3,934.2,1342.8,944.1,1320.9,936.8z"/>
					<path class="st13" d="M1375.5,914.7l-79.4-26.5c8.2-19.5,32.7-29.4,54.6-22.1C1372.6,873.4,1383.7,895.2,1375.5,914.7z"/>
					<path class="st9" d="M1177.5,930.7c-18.2-13.2-20.9-37-6-53.1c14.8-16.1,41.5-18.6,59.7-5.4c18.1,13.2,20.9,37,6,53.1
						C1222.4,941.5,1195.6,943.9,1177.5,930.7z"/>
					<path class="st13" d="M1237.2,925.3l-65.7-47.7c14.8-16.1,41.5-18.6,59.7-5.4C1249.3,885.4,1252,909.2,1237.2,925.3z"/>
				</g>
			</g>
			<path class="st10" d="M1412.8,876.7v288.7c0,19.1-17.5,34.7-39,34.7h-207.6c-5.6,0-10.8-1-15.6-2.9V916.7
				c0-11.5,5.5-21.9,14.3-29.2c3.2-2.7,6.9-5,11-6.7c5.9-2.6,12.6-4.1,19.7-4.1H1412.8z"/>
		</g>
		<g>
			<g>
				<path class="st12" d="M1426.3,898.9h-207.6c-21.4,0-39,15.6-39,34.7v310.8c0,19.1,17.5,34.7,39,34.7h207.6
					c21.4,0,39-15.6,39-34.7V933.6C1465.2,914.5,1447.7,898.9,1426.3,898.9z"/>
				<path class="st9" d="M1373.3,1015.8c-21.9-7.3-33-29.1-24.8-48.6c8.2-19.5,32.7-29.4,54.6-22.1c21.9,7.3,33,29.1,24.8,48.6
					S1395.2,1023.1,1373.3,1015.8z"/>
				<path class="st13" d="M1427.9,993.7l-79.4-26.5c8.2-19.5,32.7-29.4,54.6-22.1C1425,952.4,1436.1,974.2,1427.9,993.7z"/>
				<path class="st9" d="M1229.9,1009.7c-18.2-13.2-20.9-37-6-53.1c14.8-16.1,41.5-18.6,59.7-5.4c18.1,13.2,20.9,37,6,53.1
					C1274.8,1020.4,1248,1022.9,1229.9,1009.7z"/>
				<path class="st13" d="M1289.6,1004.3l-65.7-47.7c14.8-16.1,41.5-18.6,59.7-5.4C1301.7,964.4,1304.4,988.1,1289.6,1004.3z"/>
			</g>
		</g>
		<g>
			<rect x="1107" y="1022.9" class="st6" width="326.1" height="433"/>
			<rect x="1152.4" y="1022.9" class="st7" width="326.1" height="433"/>
			<polygon class="st11" points="1152.4,1048 1136.8,1069.6 1107,1069.6 1107,1022.9 1152.4,1022.9 			"/>
			<polygon class="st7" points="1107,1022.9 1079.1,1057 1124.6,1057 1152.4,1022.9 			"/>
			<polygon class="st10" points="1152.4,1042.6 1152.4,1457.3 1320.6,1457.3 1320.6,1057 			"/>
			<g>
				<polygon class="st2" points="1478.5,1057 1452.1,1069.6 1168.1,1069.6 1152.4,1048 1152.4,1022.9 				"/>
				<polygon class="st7" points="1478.5,1022.9 1152.4,1022.9 1175.5,1057 1501.5,1057 				"/>
			</g>
		</g>
		<g>
			<g>
				<path class="st12" d="M1354.3,1201.8H1005c-21.4,0-39,15.6-39,34.7v184.7c0,19.1,17.5,34.7,39,34.7h349.3
					c21.4,0,39-15.6,39-34.7v-184.7C1393.3,1217.5,1375.7,1201.8,1354.3,1201.8z"/>
				<path class="st9" d="M1097.4,1283.7c-8.2,19.5-32.7,29.4-54.6,22.1c-21.9-7.3-33-29.1-24.8-48.6c8.2-19.5,32.7-29.4,54.6-22.1
					C1094.5,1242.4,1105.6,1264.2,1097.4,1283.7z"/>
				<path class="st13" d="M1072.6,1235.1l-29.8,70.7c-21.9-7.3-33-29.1-24.8-48.6C1026.2,1237.6,1050.6,1227.7,1072.6,1235.1z"/>
				<path class="st9" d="M1090.5,1411.3c-14.8,16.2-41.5,18.6-59.7,5.4c-18.1-13.2-20.9-37-6-53.1c14.8-16.1,41.5-18.6,59.7-5.4
					C1102.6,1371.3,1105.3,1395.1,1090.5,1411.3z"/>
				<path class="st13" d="M1084.5,1358.1l-53.7,58.5c-18.1-13.2-20.9-37-6-53.1C1039.6,1347.4,1066.3,1345,1084.5,1358.1z"/>
				<path class="st9" d="M1356.2,1283.7c-8.2,19.5-32.7,29.4-54.6,22.1c-21.9-7.3-33-29.1-24.8-48.6c8.2-19.5,32.7-29.4,54.6-22.1
					C1353.3,1242.4,1364.4,1264.2,1356.2,1283.7z"/>
				<path class="st13" d="M1331.4,1235.1l-29.8,70.7c-21.9-7.3-33-29.1-24.8-48.6C1285,1237.6,1309.5,1227.7,1331.4,1235.1z"/>
				<path class="st9" d="M1349.3,1411.3c-14.3,15.6-39.7,18.4-57.8,6.7c-0.6-0.4-1.3-0.8-1.9-1.3c-18.2-13.2-20.9-37-6-53.1
					c14.8-16.2,41.5-18.6,59.7-5.4c0.6,0.5,1.2,0.9,1.8,1.4C1361.6,1372.9,1363.6,1395.7,1349.3,1411.3z"/>
				<path class="st13" d="M1345.1,1359.5l-53.6,58.4c-0.6-0.4-1.3-0.8-1.9-1.3c-18.2-13.2-20.9-37-6-53.1
					c14.8-16.2,41.5-18.6,59.7-5.4C1343.9,1358.6,1344.5,1359.1,1345.1,1359.5z"/>
				<g>
					<path class="st9" d="M1230.2,1254.2c10,18.8,1,41.4-20.2,50.3c-21.2,8.9-46.5,0.9-56.5-17.9c-10-18.8-1-41.4,20.2-50.3
						C1194.9,1227.4,1220.2,1235.4,1230.2,1254.2z"/>
					<path class="st13" d="M1173.7,1236.3l36.3,68.2c-21.2,8.9-46.5,0.9-56.5-17.9C1143.5,1267.7,1152.5,1245.2,1173.7,1236.3z"/>
				</g>
				<path class="st9" d="M1176.1,1422.4c-21.8-7.8-32.3-29.7-23.6-49.1c8.7-19.4,33.4-28.8,55.2-21c21.8,7.7,32.3,29.7,23.6,49.1
					C1222.6,1420.8,1197.9,1430.2,1176.1,1422.4z"/>
				<path class="st13" d="M1231.3,1401.4l-78.8-28.1c8.7-19.4,33.4-28.8,55.2-21C1229.4,1360.1,1240,1382.1,1231.3,1401.4z"/>
			</g>
		</g>
		<g>
			<g>
				<polygon class="st5" points="2211.4,1457.3 1611.3,1457.3 1485.8,999.6 2085.8,999.6 				"/>
				<polygon class="st4" points="1360,1457.3 1960.1,1457.3 2085.6,999.6 1485.5,999.6 				"/>
				<polygon class="st12" points="1401.1,1431.3 1933.2,1431.3 2044.5,1025.6 1512.4,1025.6 				"/>
				<polygon class="st14" points="2211.4,1457.3 2083.9,1435.5 1960.1,1457.3 				"/>
			</g>
			<path class="st15" d="M1979.5,951.8c30.1,0,54.7,21.4,55.5,48h-22.2c-0.8-15.7-15.4-28.2-33.3-28.2c-18.4,0-33.3,13.3-33.3,29.7
				c0,16.4,14.9,29.7,33.3,29.7c6.1,0,11.1,4.4,11.1,9.9s-5,9.9-11.1,9.9c-30.6,0-55.5-22.2-55.5-49.4
				C1924,974,1948.9,951.8,1979.5,951.8z"/>
			<path class="st15" d="M1838.8,951.8c30.1,0,54.7,21.4,55.5,48h-22.2c-0.8-15.7-15.4-28.2-33.3-28.2c-18.4,0-33.3,13.3-33.3,29.7
				c0,16.4,14.9,29.7,33.3,29.7c6.1,0,11.1,4.4,11.1,9.9s-5,9.9-11.1,9.9c-30.6,0-55.5-22.2-55.5-49.4
				C1783.3,974,1808.2,951.8,1838.8,951.8z"/>
			<path class="st15" d="M1698.1,951.8c30.1,0,54.7,21.4,55.5,48h-22.2c-0.8-15.7-15.4-28.2-33.3-28.2c-18.4,0-33.3,13.3-33.3,29.7
				c0,16.4,14.9,29.7,33.3,29.7c6.1,0,11.1,4.4,11.1,9.9s-5,9.9-11.1,9.9c-30.6,0-55.5-22.2-55.5-49.4
				C1642.6,974,1667.5,951.8,1698.1,951.8z"/>
			<path class="st15" d="M1557.4,951.8c30.1,0,54.7,21.4,55.5,48h-22.2c-0.8-15.7-15.4-28.2-33.3-28.2c-18.4,0-33.3,13.3-33.3,29.7
				c0,16.4,14.9,29.7,33.3,29.7c6.1,0,11.1,4.4,11.1,9.9s-5,9.9-11.1,9.9c-30.6,0-55.5-22.2-55.5-49.4
				C1501.9,974,1526.8,951.8,1557.4,951.8z"/>
			<polygon class="st13" points="1846.9,1169 1966.3,1169 1987.9,1097.2 1868.5,1097.2 			"/>
			<polygon class="st13" points="1676.8,1169 1796.2,1169 1817.9,1097.2 1698.4,1097.2 			"/>
			<polygon class="st13" points="1514.1,1169 1633.5,1169 1655.1,1097.2 1535.7,1097.2 			"/>
			<polygon class="st13" points="1815.4,1268.5 1934.8,1268.5 1956.4,1196.7 1837,1196.7 			"/>
			<polygon class="st13" points="1645.3,1268.5 1764.7,1268.5 1786.4,1196.7 1666.9,1196.7 			"/>
			<polygon class="st13" points="1482.6,1268.5 1602,1268.5 1623.6,1196.7 1504.2,1196.7 			"/>
			<polygon class="st13" points="1782.9,1370.1 1902.4,1370.1 1924,1298.3 1804.6,1298.3 			"/>
			<polygon class="st13" points="1612.9,1370.1 1732.3,1370.1 1753.9,1298.3 1634.5,1298.3 			"/>
			<polygon class="st13" points="1450.1,1370.1 1569.6,1370.1 1591.2,1298.3 1471.8,1298.3 			"/>
			<polygon class="st4" points="2085.6,999.6 2083.9,1435.5 2211.4,1457.3 			"/>
		</g>
		<g>
			<path class="st16" d="M1456.9,1436.3c0,5.4-2.5,10.3-6.5,13.9c-4,3.6-9.5,5.8-15.6,5.8h-104.2c-12.1,0-22.1-8.8-22.1-19.6
				c0-5.4,2.5-10.3,6.5-13.9c4-3.6,9.5-5.8,15.6-5.8h104.2C1447,1416.6,1456.9,1425.5,1456.9,1436.3z"/>
			<path class="st17" d="M1403.2,1436.3c0,5.4-2.5,10.3-6.5,13.9c-4,3.6-9.5,5.8-15.6,5.8h-50.4c-12.1,0-22.1-8.8-22.1-19.6
				c0-5.4,2.5-10.3,6.5-13.9c4-3.6,9.5-5.8,15.6-5.8h50.4C1393.3,1416.6,1403.2,1425.5,1403.2,1436.3z"/>
			<path class="st18" d="M1436.6,1421h-99.4c-1.7,0-3.1,1.3-3.1,2.8v0.6c0,1.5,1.4,2.8,3.1,2.8h99.4c1.7,0,3.1-1.3,3.1-2.8v-0.6
				C1439.7,1422.2,1438.3,1421,1436.6,1421z"/>
		</g>
		<g>
			<path class="st6" d="M1368,1380.7c2.9,5.1,3.1,10.8,1.3,15.9c-1.9,5.1-5.9,9.5-11.7,12.1l-98.7,44c-11.5,5.1-25.6,0.9-31.4-9.3
				c-2.9-5.1-3.1-10.8-1.3-15.9c1.9-5.1,5.9-9.5,11.7-12l98.7-44C1348.1,1366.3,1362.3,1370.4,1368,1380.7z"/>
			<path class="st7" d="M1317.1,1403.4c2.9,5.1,3.1,10.8,1.3,15.9c-1.9,5.1-5.9,9.5-11.7,12.1l-47.8,21.3
				c-11.5,5.1-25.6,0.9-31.4-9.3c-2.9-5.1-3.1-10.8-1.3-15.9c1.9-5.1,5.9-9.5,11.7-12l47.8-21.3
				C1297.2,1389,1311.3,1393.1,1317.1,1403.4z"/>
			<path class="st8" d="M1345.4,1376.7l-0.3-0.6c-0.8-1.4-2.8-2-4.4-1.3l-94.2,42c-1.6,0.7-2.3,2.5-1.5,4l0.3,0.6
				c0.8,1.5,2.8,2,4.4,1.3l94.2-42C1345.6,1379.9,1346.2,1378.1,1345.4,1376.7z"/>
		</g>
		<g>
			<g>
				<g>
					<path class="st19" d="M612.5,771.9c0,0-32.5,13.7-39.9,12c-7.4-1.7-35.4-6.1-39.4-4.6c0,0-4.5,6.3-1.1,10.5
						c3.4,4.2,30.7,15.5,40.5,15.9c9.9,0.4,47.3-5.6,55.2-11.1L612.5,771.9z"/>
					<path class="st19" d="M534.2,779.4c0,0-12.5-4.6-16.6,0.5c-4.1,5.2-6.4,10.4-5.9,13.1c0.5,2.7,9,3.8,12.4,1.8
						c3.4-2.1,11.8-4.9,11.8-4.9L534.2,779.4z"/>
				</g>
				<path class="st20" d="M550.4,785.4c0,0,14.5,52.1,35.9,91c6,10.9,12.5,20.8,19.4,28.2c3.3,3.6,6.8,6.6,10.3,8.9
					c36.5,23.6,94.2-14.1,94.2-14.1c2.1-22.9-44.6-61.3-74.4-84.3c-11.7-9-20.8-15.6-23.4-18c-5-4.6-15.5-7.4-26.5-9.1
					C568.7,785.4,550.4,785.4,550.4,785.4z"/>
				<path class="st21" d="M474.3,1428.5c0,0,6.9,10,7.1,21.5c0,2.6-2.3,4.7-5.2,4.7H433c-4.2,0-7.3-3.5-6.2-7.1
					c2-7,6.3-17.6,14.9-24.1C455.5,1413.2,474.3,1428.5,474.3,1428.5z"/>
				<path class="st21" d="M542.5,1418.3c0,0,2.5,35.6,10.2,36.1c1,0.1,39.2,0.1,39.2,0.1l49.3,0c0,0-0.8-10.7-15.1-12.9
					s-38.1-11.1-46.8-27.9C570.4,1396,542.5,1418.3,542.5,1418.3z"/>
				<g>
					<path class="st16" d="M521.9,1198.5c1.7,19.8,1.9,35.4-0.3,42.8c-10.2,33.1,18.3,182.5,18.3,182.5c21,8.9,50.9-0.1,50.9-0.1
						c-1.8-20.7,9.2-206,19.5-319.1c4.3-47.5,7.5-80.7,7.5-80.7l-125.9-13C491.9,1010.9,515.9,1129.8,521.9,1198.5z"/>
					<path class="st22" d="M491.9,1010.9c0,0,24,118.9,29.9,187.6l88.4-93.9c4.3-47.5,7.5-80.7,7.5-80.7L491.9,1010.9z"/>
				</g>
				<path class="st16" d="M553.7,1036.3c0,0-63.7,330.2-74.7,394.1c0,0-23.9,5.9-48.2-3.3c0,0-3.2-153.4,5.2-199.6
					c8.3-46.2-4.4-189.1,9-202.4C458.4,1011.8,553.7,1036.3,553.7,1036.3z"/>
				<path class="st23" d="M547.1,754.7c0,0,4.9,29.3,2.7,38.1c-2.1,8.8-34.9,13.5-48.6,6.3c-13.7-7.2-9.6-9.9-9.6-9.9s2.1-33.6,4-36
					C497.6,750.8,547.1,754.7,547.1,754.7z"/>
				<path class="st20" d="M437.6,1040.9c0,0,9.2,4.8,32.3,8.9c17,3,41.4,5.6,75.3,5.6c61.9,0,82.2-15.7,82.2-15.7
					c3.3,0.1-11.7-76.5-11.7-141.8c0-60.4-19.9-105.6-54.2-110.9c-6.7-1-11.2-1.7-11.2-1.5c0,5-8.8,14.1-22.3,14.9
					c-16.1,0.9-36-6.7-36-14.9c0-0.4-37.5,1.6-49.5,62.9c-4.1,20.9-5.2,48.6-0.9,85.5C443.2,946.5,432.4,1040.9,437.6,1040.9z"/>
				<path class="st24" d="M437.6,1040.9c0,0,9.2,4.8,32.3,8.9c32-12.6,95.4-45.2,97.9-99.8c3.3-72.7-96.5-116-96.5-116
					s-13.4,6.6-28.7,14.4c-4.1,20.9-5.2,48.6-0.9,85.5C443.2,946.5,432.4,1040.9,437.6,1040.9z"/>
				<path class="st19" d="M547.7,758c0,0-12.7,15.9-26.1,16.1c-13.4,0.1-27.2-15.8-27.2-15.8L547.7,758z"/>
				<path class="st23" d="M548.9,757.2c-3.5,2.5-11.4,5.9-17.8,8.1c-4.9,1.7-10.3,1.8-15.2,0.3c-7.4-2.3-18.6-5.8-21.5-7.4
					c-6.7-3.6-6.3-11-6.6-21.2c-0.4-12.1-1.8-21.6-0.3-28.6c1.8-8.3,7.7-13.1,24.4-14.4c30.5-2.4,43.3,4.4,43.8,13.6
					c0.1,2.4,0.3,4.8,0.4,7C557.2,743.1,554.7,753.2,548.9,757.2z"/>
				<path class="st25" d="M555.8,711.1c0,0-5-6.6-14.4-4c-9.4,2.6-10.4,9.7-26.4,8.6c-16.1-1.1-19.9-7.9-22.8-4.5
					c-2.9,3.4-4.6,23.4-4.6,23.4S455.3,669,520.8,669c0,0,67.4-3.6,35,63V711.1z"/>
				<path class="st23" d="M674.7,773.1L674.7,773.1C674.7,773.2,674.7,773.1,674.7,773.1z"/>
				<path class="st26" d="M710,679.5c0.5-1.1,0.9-1.8,0.9-1.8C710.5,678.2,710.2,678.8,710,679.5z"/>
				<path class="st19" d="M524.1,974.6c0,0,8.6,6,21.1,6c0,0,12.8-12.5,23.5-24.6c7-7.8,13.1-15.5,14.4-19.5
					c3.2-10.1,63.3-13,70.7-20.1c7.4-7.1-29.9-25.1-29.9-25.1s-61,8.3-70.2,19c-3.6,4.2-9.1,15.3-14.3,27.1
					C531.5,955.1,524.1,974.6,524.1,974.6z"/>
				<path class="st24" d="M609.5,825.8c0,0-11.6-20-17.3-19.4c-5.7,0.6,13.1,41.4,14.8,61.2C608.8,887.3,609.5,825.8,609.5,825.8z"
					/>
				<path class="st23" d="M573.3,963.3c8,17.3,18.4,33,19.7,35c0.1,0.1,0.1,0.2,0.1,0.2s0.1,0,0.2,0c1.9,0,18.7-0.3,20.3-6.3
					c0,0,0.5-20.7-0.4-37.2c-0.4-7.4-1.1-13.9-2.3-17.3c0,0,90.9-0.5,89.3-23.4c-1.6-22.9-49.1-35-76.4-23.1
					c0,0-36.2,11.7-55.3,27.2C559.3,926,565,945.5,573.3,963.3z"/>
				<path class="st16" d="M697.6,882.3c0,0,12.1,15.8,9.3,30.6c-2.8,14.8-37.4,22.7-61.5,23.6c0,0-69.1-14.1-58.4-38.6
					C589.4,892.3,697.6,882.3,697.6,882.3z"/>
				<g>
					<path class="st27" d="M672.5,687.8c0,0,11-20.5,37.5-8.3c26.5,12.2,0.7,58.8,14.6,70.3c13.9,11.5-5,19-2.2,27.3
						c2.8,8.3-5.2,17.6-23.8,16.5c-18.5-1.1-38.1-0.2-46.5-14.7c-8.4-14.4-6.5-46.2-3.2-50.7C652.1,723.9,672.5,687.8,672.5,687.8z"
						/>
					<path class="st23" d="M629.6,797.4l45.1-24.2c-0.2-0.1-1.2-1.3-4.5-10c-1.4-3.7-2.2-6.9-2.6-9.5c0-0.3-0.1-0.5-0.1-0.7
						c-0.5-3.7-0.1-5.8-0.1-5.8l-9.9,3.2l-18.3,5.9c0.2,4.1-0.4,7-1.4,9c-2.4,4.8-6.8,4.9-7,4.9L629.6,797.4z"/>
					<path class="st28" d="M637.7,765.2c17.6,1.3,27.6-8.9,29.8-11.5c0.3-0.4,0.5-0.6,0.5-0.6s-0.2-0.1-0.6-0.2
						c-1.4-0.4-5.3-1.4-10-2.7l-18.3,5.9C639.4,760.4,638.7,763.3,637.7,765.2z"/>
					<path class="st23" d="M636.9,759.6c0,0,39.2,3.8,40-19.8c0.8-23.6,6.6-34.4-20.5-36.5c-27.1-2.1-33.5,6.6-35.1,14.6
						C616.2,742.9,625.8,758.6,636.9,759.6z"/>
					<path class="st27" d="M654.2,714.9c13.9-3.1,8.6,18.7,12.1,17.2c3.9-1.7,10.7-1.6,9.6,2.6c-1.1,4.2-2.6,5.7-3.4,8.4
						c-0.8,2.6,0,7.8,3.2,6.8c3.2-1.1,33.2-31.5,12-55.3c-21.2-23.7-84.4-9.1-64.5,15.7C626.8,714.7,644.4,717.1,654.2,714.9z"/>
					<path class="st17" d="M603.9,891.2c0,0,11.8,5.6,30.3,5.3c11.8-0.2,36.9-4.7,53-9.9c9.2-2.9,15.5-6.1,14.7-8.7
						c-1.1-3.8-9-33-16.2-60.1c-6.7-24.7-12.8-47.7-12.8-47.7s-18.4,11.6-29.1,7.5c-10.7-4.1-9.3-8.7-9.3-8.7s-12.6-1.4-16-1
						c-5.5,0.6-24.7,6.8-24.7,6.8s-2.5,6.3,4.2,16.2c5.6,8.2,11,9.8,11,9.8S593.2,844.9,603.9,891.2z"/>
					<path class="st23" d="M662.9,851.8c0,0-11.3-1.9-15.8,0.7c-4.4,2.6-5.7,6.6-2.6,8.3c10,5.2,20.1-0.5,20.1-0.5L662.9,851.8z"/>
					<path class="st29" d="M687.3,886.6c9.2-2.9,15.5-6.1,14.7-8.7c-1.1-3.8-9-33-16.2-60.1c-2.1-3.5-3.5-5.6-3.5-5.6
						S668.4,868.3,687.3,886.6z"/>
					<path class="st23" d="M672.5,773.3c0,0,34.9,6.6,48.6,54.8c1.3,4.7,0,9.8-3.7,13.4c-6.3,6.2-20.3,15.4-52.7,18.7
						c-3.5,0.4-4-7.6-4-7.6c0.4,0.6,22-12.5,31.2-19.5c1.7-1.3,1.6-3.9,0.4-5.6c-3.1-4.2-8.3-11.6-10.1-15.3
						C679.7,806.7,662.7,775.8,672.5,773.3z"/>
					<path class="st17" d="M672.9,770.1c0,0,20.5,1.3,37.2,21.1c0,0-5.7,18.2-32.2,23.1C677.9,814.4,661.6,781.5,672.9,770.1z"/>
				</g>
				<path class="st30" d="M573.3,963.3c8,17.3,18.4,33,19.7,35c0.1,0.1,0.2,0.1,0.3,0.2c1.9,0,18.7-0.3,20.3-6.3
					c0,0,0.5-20.7-0.4-37.2C610.7,957.3,600.4,964.1,573.3,963.3z"/>
				<path class="st30" d="M524.1,974.6c0,0,8.6,6,21.1,6c0,0,12.8-12.5,23.5-24.6c-12.1-4.7-24.9-14.9-29.3-18.7
					C531.5,955.1,524.1,974.6,524.1,974.6z"/>
				<path class="st16" d="M567.3,1020.9c0.4,1.9,2.5,3.1,4.6,2.7c5-0.9,14.1-2.6,17.9-3.9c5.3-1.7,15.6-7.1,20.9-8.8
					c1.8-0.6,6.2-2.2,9.1-3.2c1.5-0.5,2.3-2,1.9-3.4c-0.9-2.9-2.8-7.8-5.4-12c-0.5-0.8-1.3-1.3-2.2-1.8c-2.8,2-7.1,4.2-13,4.2
					c-4.8,0-8.8-1-11.7-2.2c-0.4,0.7-7.6,13.7-12.8,15.4C571.9,1009.5,565.8,1013.4,567.3,1020.9z"/>
				<path class="st16" d="M491.1,974.8c-1,1.7-0.2,3.8,1.7,4.7c4.6,2.1,12.9,5.7,16.7,6.8c5.4,1.6,17.2,3,22.6,4.6
					c1.9,0.5,6.4,1.7,9.4,2.5c1.6,0.4,3.2-0.3,3.8-1.7c1.3-2.8,3.3-7.7,4.1-12.4c0.2-0.9-0.1-1.7-0.5-2.6c-3.6,0-8.5-0.7-13.1-3.9
					c-3.8-2.6-6.2-5.6-7.7-8.2c-0.7,0.3-15.6,6.6-20.8,5C502.7,968.3,495.1,968.1,491.1,974.8z"/>
				<path class="st20" d="M564.6,948.6c0,0,2.6,13.5,12.5,19.7c0,0,40-4.9,77.3-13.3c27.4-6.2,53.3-14.2,60.7-23.6
					c17.5-22.1-9.2-49-9.2-49s-51.4,22.1-107,49.1C587.5,937.1,576,942.8,564.6,948.6z"/>
				<path class="st23" d="M624.8,968.3c0,0,11.9,0.9,16.4,4.9c4.5,4,11.3,15.6,6.5,20.3c-4.9,4.6-28-5.5-28.6-7.2
					C618.4,984.6,624.8,968.3,624.8,968.3z"/>
				<path class="st24" d="M564.6,948.6c0,0,2.6,13.5,12.5,19.7c0,0,40-4.9,77.3-13.3c-17.5-13.5-40.4-20.3-55.5-23.5
					C587.5,937.1,576,942.8,564.6,948.6z"/>
				<path class="st20" d="M626.4,964.7c-55.9-36.1-95.5-49.3-96.7-49.2c-7.1-26.3-13.5-67.3-40.3-129.8c0,0-52.6,0.6-60.6,17.6
					c-11.4,24.2-19.7,102.5,67.3,153.1c0.5,0.3,1.1,0.6,1.7,1c0.2,0.1,0.5,0.3,0.7,0.4c0,0,0,0,0,0c26.9,14,123.2,32.9,123.2,32.9
					C632.3,978.9,626.4,964.7,626.4,964.7z"/>
			</g>
			<g>
				<path class="st25" d="M804.2,765.4c-0.3-1.7-4.8-19.6-36-16.6c0,0,15.5-0.4,19.1,5.3c0,0-11.6-6-19.7-2.6
					c-8.1,3.5-10.9,17.3-10.2,21.6c0.7,4.3,7.6,17.7,13.2,18.2c2.1,0.2,4.4-0.2,6.5-0.8c-1.1,2.2-2.1,4.5-3.1,7.2
					c-8.7,24.2,7.7,44.7,17.8,40.9c6.5-2.4,10,7.5,10,7.5l57.6-55.5C859.5,790.6,828.3,749.6,804.2,765.4z"/>
				<path class="st20" d="M879.3,1433.7l-14,4.6c0,0-60.9-75.2-68.4-141.3c-1.3-11.8-0.9-23.2,2-33.8c0,0-0.6-3-1.6-8.4
					c-0.5-2.5-1.1-5.5-1.8-8.9c-2-10.1-4.7-23.9-7.8-39.6c-7.2-36.2-16.4-82.5-23.7-116.5l3.8-1.1l40.9-11.7l8.4-23.9l30.4-7.1
					c0,0,6.8,11.8,12.9,67.7c1.1,7.3,2.1,15.4,2.9,24.2c2.4,26.8,2.5,60-2.9,97.9c-1.4,9.7-3.2,19.8-5.3,30.1
					c-1.6,7.6-1.8,17.9-1.2,29.7C857,1349.7,879.3,1433.7,879.3,1433.7z"/>
				<path class="st24" d="M863.3,1138l-66.1,116.9c-0.5-2.5-1.1-5.5-1.8-8.9c-2-10.1-4.7-23.9-7.8-39.6
					c-7.2-36.2-16.4-82.5-23.7-116.5l3.8-1.1l40.9-11.7l8.4-23.9l30.4-7.1c0,0,6.8,11.8,12.9,67.7
					C861.5,1121.1,862.5,1129.2,863.3,1138z"/>
				<path class="st20" d="M834.2,1061.1c0,0,0,0.1-0.1,0.3c-0.2,0.8-0.9,3.1-1.8,6.5c-4.4,16.1-15.1,55.2-15.8,55.1
					c-5.9,36.6-14.8,84.1-25.8,120.6c-5.8,19.3-12.2,35.5-19.2,45.4c-2.4,3.4-5,9.1-7.7,16.4c-15.9,42.8-35.5,139.6-35.5,139.6
					l-8.9,3.2c0,0-34.4-87-4.6-157.7c3-7.2,6.7-14.2,11.2-21c0.5-0.8,0.9-1.6,0.7-2.5c0,0,0,0,0,0c-0.4-2.9-1.4-10.3-2.4-20.7
					c-3-28.6-5.9-125.1-7.5-147.9c-0.6-8.6-0.2-16.3,0.7-23.1c1.9-13.3,6.2-23.2,10.4-30.1c5.3-8.8,10.4-12.8,10.4-12.8
					s68.5,23,94.1,16.9L834.2,1061.1z"/>
				<path class="st24" d="M834.1,1066.8c-0.5,0.4-1.1,0.7-1.8,1c-23.6,12.3-106.5,8-114.6,7.5c1.9-13.3,6.2-23.2,10.4-30.1
					c35.4,2.8,94.2,8.5,106,16.1C836.8,1063.1,837.1,1064.9,834.1,1066.8z"/>
				<path class="st28" d="M966.3,1041.9l-4.2,10.9c0,0-0.8-0.1-2.3-0.5c-4.5-1-15.6-3.4-28-6.6c-18.7-4.7-40.6-11.3-48.6-17.7
					c-12.2-9.6-30-36-40-61.1c-0.3-0.6-0.5-1.2-0.7-1.8c-5.2-13.3-8.1-26.1-6.6-35.8c0.9-5.9,2.6-10.8,4.9-15
					c2.9-5.5,6.8-9.6,10.5-12.5c0.5-0.5,1.1-1,1.8-1.3c6.1-4.5,10.4-7.5,10.4-7.5c2.7-0.5,6.3,2.6,8.5,5.8c0,0,3.7,6.3,5.3,10.7
					c0.1,0.1,0.2,0.2,0.2,0.3c0.4,0.9,0.7,1.9,1.1,3.1c0.2,0.2,0.2,0.5,0.3,0.7c0.7,2.3,1.4,4.7,2.1,7.2c7.8,27,13.8,66.9,22.9,79.9
					c3.9,5.6,24.5,18.7,40.9,28.6C956.7,1036.5,966.3,1041.9,966.3,1041.9z"/>
				<path class="st23" d="M856.5,919.4c-7.4,4.3-16.7,7.8-28.2,9.9c-43.3,7.8-58.7-25-64.2-47.3c6-2.8,11.5-3.4,14.7-3.6
					c3.1-0.2,6.4-0.4,9.1-0.4c4.9-3.2,12.6-16.5,14.8-37.3l2,0.5l33.6,9.1c0,0-1.9,9.5-2.9,18.6c-0.8,7.1-1.1,13.8,0.3,15.5
					c2.6,0.6,4.2,0.9,4.2,0.9s0,0,0,0C840.4,885.9,849.7,900.6,856.5,919.4z"/>
				<path class="st16" d="M871.5,943.4c-0.2,0.8-0.4,1.6-0.7,2.4c-7.6,22.6-13.7,112.9-13.7,112.9c5.5,15.4-133.7,14.1-136.4-0.2
					c-7.3-14.6,10.5-41.9,20.8-55.7c1.3-1.7,2.4-3.6,3.3-5.5c2.3-4.8,3.4-10,3.2-15.2c-0.9-20.7-4.9-39.6-6.6-51.2c0,0,0,0,0,0
					c2.1-1.9,4.2-3.7,6.2-5.3c3-2.6,5.6-5,7.4-7.3c2-2.5,3.1-5,2.9-7.6c-0.2-2-0.6-3.9-1.1-5.9c-0.3-0.9-0.5-1.8-0.9-2.8
					c-3.3-9.6-9.4-18-9.4-18c11-5.7,32.2-5.9,32.2-5.9s0.1,1,0.4,2.7c1,6.8,3.9,24.1,6.9,27.1c3.7,3.7,62.4,14.4,64.4,8.5
					c2-5.8-10.1-30.4-10.6-31.3c0,0,0,0,0,0c19.7,4.1,27.3,8.7,27.3,8.7C857,901.9,876.9,921.8,871.5,943.4z"/>
				<path class="st28" d="M838.3,850.2c0,0-1.9,9.5-2.9,18.6c-19.1-2.2-27.5-18.7-30.7-27.7L838.3,850.2z"/>
				<path class="st23" d="M843.7,859.3c0,0-45.5-3.4-42.7-28.6c2.8-25.2-1.2-42.6,28-41.5c29.2,1.1,33.7,11.2,35.1,19.8
					C865.5,817.7,855.6,859.5,843.7,859.3z"/>
				<path class="st25" d="M864.3,795c-6.2-8.2-11.7-7-14.9-5c-23.5-14.4-48.5-0.7-48.5-0.7c-5.1,17.8-13.8,29.7-13.8,29.7
					s7.8,5.3,27.3,2.6c6-0.8,11.6-4,16.5-8.1c-9,10.8-20.5,18.2-20.5,18.2c23.8-7.3,36.2-34.7,37.4-37.6c2.5,2.5,7.4,7.8,8.6,12.6
					c1.5,6.6,1.1,19.9,5.4,19.8C861.9,826.5,873.6,807.3,864.3,795z"/>
				<path class="st22" d="M815.7,1034.1c-26.9,3.2-53.6-18.6-70.8-36.7c2.3-4.8,3.4-10,3.2-15.2c-0.9-20.7-4.9-39.6-6.6-51.2
					c0,0,0,0,0,0c2.1-1.9,4.2-3.7,6.2-5.3c3-2.6,5.6-5,7.4-7.3C782.4,948.6,852.1,1029.7,815.7,1034.1z"/>
				<g>
					<path class="st28" d="M909.4,1042.3l4.8,14.4c0,0-12-2.4-19.5-3.1c-2.3-0.2-3.6-0.4-3.6-0.4c-6-0.6-13.2-1.4-21.1-2.4l-0.1,0
						c-13.5-1.8-28.6-4-41.5-6.8c-9-2-16.9-4.4-22.4-6.9c-0.6-0.2-1-0.5-1.6-0.8c-13.1-7-30.1-29.4-44-53.7c-1.9-3.4-3.7-6.7-5.6-10
						c-6.5-12.2-12-24.3-15.5-34.8c-2.2-6.3-3.8-12-4.5-16.8c-0.3-1.7-0.5-3.3-0.6-4.8c-0.1-0.9-0.1-1.7-0.2-2.5
						c5.3-4.1,17.6-11.9,34.3-11.1c0.3,0.5,0.7,1.1,1,1.6c7.2,11.7,15.1,26.9,22.5,42c4.1,8.3,8.1,16.6,12.1,24.3
						c2.3,4.7,4.5,9,6.6,13c4,7.6,7.6,13.8,10.7,17.7c2,2.5,7.2,5.8,14,9.4c11.9,6.4,29.1,13.9,44.1,19.9c6.2,2.6,12.1,4.9,17,6.7
						C904.2,1040.3,909.4,1042.3,909.4,1042.3z"/>
					<path class="st16" d="M769.4,904.1c-20.8-3.4-35.2,11.9-35.2,11.9c-2.4-27.3,12.5-32.2,12.5-32.2
						C752.6,881.2,760.6,890.1,769.4,904.1z"/>
				</g>
				<path class="st22" d="M771.5,1454.7h-70.6c0,0-1.7-9.6,2-16.8c3.5-7,9.1-10.1,7.7-18.6c4.5,4.1,11.8,8.7,22,7.5
					c1.3,1.8,8.1,11.5,12.3,14.1C749.5,1443.9,770.1,1442.8,771.5,1454.7z"/>
				<path class="st22" d="M923.1,1454.7h-70.6c0,0-2.6-10,2-16.8c4.1-6,2.5-9.5-0.5-14.5c3.2,1.2,7.3,2.2,11.9,2
					c3.5-0.2,7.2-1.6,10.5-3.3c3,3.1,16.1,16.2,20.1,18.8C901.1,1443.9,921.7,1442.8,923.1,1454.7z"/>
				<path class="st31" d="M832.9,844.8c0,0,0.6,3.3,9.9,3.3c0,0,7.7,0,7.8-3.6C850.5,844.5,843.2,841.5,832.9,844.8z"/>
			</g>
			<g>
				<path class="st23" d="M1070.7,950.5c-3-1-6.7,10.2-9,10.6c-2.3,0.4-1.4-3.1-3.4-3.6c-2.1-0.5-3,9.1-1.4,12.9
					c1.6,3.7,1.4,8.1,1.4,8.1s-13.7,47-16.6,52.2c-2.9,5.3-51.1,43.5-51.1,43.5l10.6,30.4c0,0,56.7-46.6,61.6-57.6
					c4.8-11,7-67.3,7-67.3s4.2-8.1,5.2-16.3C1075.8,955.3,1073.7,951.5,1070.7,950.5z"/>
				<path class="st23" d="M923.4,1070.8c0,0-33.4-38.5-49.6-50.4c0,0-22.2-48.8-24-52c-0.1-0.2-0.2-0.3-0.3-0.4
					c-0.2-1.1-1-5.2-0.2-9c1-4.4-2.2-15-4.3-14c-2.2,1-0.4,4.6-3,4.6c-2.6-0.1-9.1-11.9-12.2-10.2c-3.1,1.6-4.7,6.2-1.9,15.1
					c2.3,7.4,7.2,14.4,8.7,16.5c-0.1,0-0.1,0.1-0.1,0.1s8.2,47.4,16.8,61.4c8.6,14.1,35.3,61.2,54.1,63
					C926.2,1097.3,923.4,1070.8,923.4,1070.8z"/>
				<path class="st32" d="M1024.2,1432.7c0,0,3.8,6.5,12.1,8.2c5.3,1,9.8,3.5,12.6,6.9c2.4,2.9,0.1,7-3.9,7h-42.4
					c-3.6,0-6.4-2.8-6.1-6c0.3-2.8,0.6-6.1,0.8-8.5c0.3-5.5,6.4-9.8,6.4-9.8L1024.2,1432.7z"/>
				<path class="st14" d="M1025.3,1434.3c0,0-10.2,5.3-27.4,2.1c0,0-29.3-66.6-31-97.9c-0.1-1.3-0.1-2.5-0.1-3.6
					c0.6-29.5-30-106.2-21.7-122c8.3-15.7,74.9,7.1,74.9,7.1l1.3,53.5L1025.3,1434.3z"/>
				<path class="st25" d="M1021.3,1273.5l-54.4,65c-0.1-1.3-0.1-2.5-0.1-3.6c0.6-29.5-30-106.2-21.7-122c8.3-15.7,74.9,7.1,74.9,7.1
					L1021.3,1273.5z"/>
				<path class="st32" d="M914.7,1432.7c0,0,3.8,6.5,12.1,8.2c5.3,1,9.8,3.5,12.6,6.9c2.4,2.9,0.1,7-3.9,7h-42.4
					c-3.6,0-6.4-2.8-6.1-6c0.3-2.8,0.6-6.1,0.8-8.5c0.3-5.5,6.4-9.8,6.4-9.8L914.7,1432.7z"/>
				<path class="st14" d="M981,1221.3c0,0-58.9,195.6-60.7,214.8c0,0-11.5,5.2-30.1-4c0,0-10.8-87.7,0-111.6
					c10.8-24-2.2-96.4,25.4-112.7C943,1191.4,981,1221.3,981,1221.3z"/>
				<path class="st23" d="M988,1066.3l-36.2,16.5l-7.2-22.3c0,0,4.6-7.7,6.7-20.4c0.9-5.3,1.3-11.5,0.7-18.4l29.5,13.4
					c0,0-0.7,2.4-1.2,6c-0.5,3.9-0.7,9.1,0.5,14C981.9,1059.3,984,1063.4,988,1066.3z"/>
				<path class="st17" d="M1018,1094.6c0.2-2.7,18.3-13.6,18.3-13.6c3.8-20.3-10.7-35-10.7-35l-21.8,13.8c-4.2,0.2-6,1.6-6,1.6
					c-3.6-0.9-14.4-0.1-14.4-0.1c0.2,4.6-1.2,9-10.3,10c-12.1,1.4-23-6-28.5-11c0,0-7.4-0.6-16.6,2.1c0,0-4.5-2-9.2-2.2l-17.9-14.3
					c0,0-20.9,5.4-24.2,33.4c0,0,23.5,15.9,25.2,28.5l0,0l0.6,4.8l2.3,16.9l4,29.6l-11.9,58.9c-0.1,0.5-0.2,1-0.2,1.5
					c0,3.9,3,7.5,7.5,8.4c0,0,1,0.2,2.9,0.4c12.6,1.6,64,7,104.2-2.7c9-2.2,15-9.9,14.3-18.2l-8.5-95.1l0,0
					C1017,1112.5,1017.8,1097.3,1018,1094.6z"/>
				<path class="st29" d="M923.4,1184c-0.8,20.6-3.1,38-16.3,44.5c-1.9-0.2-2.9-0.4-2.9-0.4c-4.4-1-7.5-4.5-7.5-8.4
					c0-0.5,0.1-1,0.2-1.5l11.9-58.9l-4-29.6c0.2-0.5,0.3-0.8,0.3-0.8S924.4,1157.6,923.4,1184z"/>
				<path class="st33" d="M980.8,1055.1c-16.8-0.4-29.6-15.1-29.6-15.1l29,1.1C979.8,1044.9,979.6,1050.1,980.8,1055.1z"/>
				<g>
					<path class="st23" d="M988.9,1046.8c0,0-33.4,7.9-45-15.8c-12.4-25.5,1.2-44.1,12.6-45.4c22.6-2.5,35.8,5.2,39.8,13.3
						C1000.3,1007,1007.4,1042.6,988.9,1046.8z"/>
					<path class="st31" d="M975.7,1033.5c0,0,1.4,3.1,10.2,1.3c0,0,7.4-1.4,6.6-4.9C992.5,1029.9,984.8,1028.4,975.7,1033.5z"/>
					<g>
						<path class="st25" d="M950,1039.3c0,0-3.9-10.2-3.5-15.7c0,0-8.7-9.9-3.6-12.3c5.1-2.4,7.8,3.4,9,2.3c1.2-1.2,3-20.6,9.2-20
							c6.2,0.6,29,6.9,39-0.8c10-7.7-14.3-37.7-55.4-26.1C903.4,978.2,911.8,1018.9,950,1039.3z"/>
						<path class="st25" d="M924.3,982.6c0,0-1.9-4.9,0.1-8.5c0,0,0.1,4.9,2.2,7C928.8,983.3,924.3,982.6,924.3,982.6z"/>
						<path class="st25" d="M925.1,979.1c0,0-5.1-0.5-7.5,3c0,0,3.6-2.2,7.2,0.1L925.1,979.1z"/>
					</g>
				</g>
			</g>
			<path class="st28" d="M909.4,1042.3c0,0,20.7,3.8,22.6,5.8c1.8,2,14.9,15.7,8.9,17.3c-6,1.6-17.3-1.7-20.6-3.1
				c-3.3-1.4-6.1-5.7-6.1-5.7L909.4,1042.3z"/>
		</g>
		<g>
			<g>
				<path class="st25" d="M1937.5,1399.8c0,0,13.6,11.3,11,19.2c-2.7,8-15,13.3-16.6,23.1c-1.7,9.8-8.3,15.1-14.3,15.1
					c-6,0-28.6,0-28.6,0s-4.4-6.9,6.2-8.9c10.7-2.1,14.7-13.6,14-24.2c-0.7-10.7,1-24.9,1-24.9l22.6-4.7L1937.5,1399.8z"/>
				<path class="st25" d="M1767.4,1456.9c-0.2,0.1-0.5,0.2-0.9,0.3h-76.4c0.7-2.4,3.1-7,12.1-8.3c11.9-1.7,32.6-7.9,37.2-21.5
					c0.1-0.4,0.3-0.9,0.4-1.3c3.7-14.5,30.3,4.4,30.3,4.4s0.1,0.6,0.2,1.6C1770.9,1437.4,1772.5,1454.6,1767.4,1456.9z"/>
				<path class="st14" d="M1705.3,1068.7c0,0,4,44.9,8.8,98.9c6.5,73.3,14.2,163.3,15,180.4c1.3,29.6,6.7,77,6.7,77
					s12.6,11.3,37.9,6.5c0,0,22.5-67.6,29-139.2c0.1-1.2,0.2-2.4,0.3-3.5c6-72.8,15.3-226.3,15.3-226.3L1705.3,1068.7z"/>
				<path class="st25" d="M1705.3,1068.7c0,0,4,44.9,8.8,98.9l88.6,124.7c0.1-1.2,0.2-2.4,0.3-3.5c6-72.8,15.3-226.3,15.3-226.3
					L1705.3,1068.7z"/>
				<path class="st14" d="M1723.8,1074.1c0,0,72.9,162.6,120.8,239c47.9,76.4,62.9,97.7,62.9,97.7s27.5-9.8,30-16.4
					c0,0-18.3-147.5-50.4-183.5c-18.1-20.3-39.4-81.3-40.4-102.6s-6.5-63.5-6.5-63.5L1723.8,1074.1z"/>
			</g>
			<g>
				<path class="st34" d="M1750,786.9c27.1,7.6,74-12.9,74-12.9s-21.2-14.1-23.5-43.4c0-0.4-0.1-0.8-0.1-1.2
					c-0.1-2.2-0.2-4.4-0.1-6.8l-7.4,5.3l-27.8,19.9c0,0,1.4,9.8,2,26.2c-4.4,2.1-7.9,4.5-10.6,6.6
					C1752.1,784.1,1750,786.9,1750,786.9z"/>
				<path class="st34" d="M1854.1,770.8c0,0-71.7-10.1-118.9,17.7c0,0-32.1,186.6-4.1,204.2c27.9,17.7,123,0,123,0V770.8z"/>
				<path class="st35" d="M1758.5,1193.5H1888c0,0-15-196.6-19.3-244.5c-3.5-38.8-10.9-131.9-13.5-165.7c-0.6-7.9-1-12.5-1-12.5
					l-30.9-4.7l-53.1,61.2c0,0-8.4,163.3-8.1,189c0.3,25.7-3.4,126-3.5,142.9C1758.3,1176.1,1758.5,1193.5,1758.5,1193.5z"/>
				<path class="st35" d="M1770.1,827.4l-11.6,366.1h-61c0,0,2.8-240.8,3-262.9c0.2-22.1-6.6-117.4,12.4-132.2
					c15.9-12.4,54.2-24.4,54.2-24.4L1770.1,827.4z"/>
				<path class="st35" d="M1766.7,765.5c0,0-17.4,10.7-16.7,14.5c0.7,3.8,3,9.9,3,9.9l10.6-1.9l-9,5.6c0,0,10.2,26.4,15.4,33.8
					L1766.7,765.5z"/>
				<path class="st36" d="M1862.4,874.6c-7.6-41.6-95.6,19.9-88.3,74.5c13.5,101,71.2,213.7,113.9,244.4L1862.4,874.6z"/>
				<path class="st37" d="M1800.5,730.5c0.1-0.8,0.4-1.1,0.4-1.1l-0.5-0.1l-7.5-1.4l-27.8,19.9c0,0,1.2,9.3,2.1,26.2
					C1767.3,773.9,1795.8,759.9,1800.5,730.5z"/>
				<path class="st34" d="M1753.8,753.8c0,0,48.4-1.2,47-28c-1.3-26.8,4.1-45-26.9-45.3c-30.9-0.4-36.4,10.1-38.4,19.1
					C1733.5,708.7,1741.2,753.5,1753.8,753.8z"/>
				<path class="st25" d="M1800.9,729.4c0,0-6.3,1.5-11.3-4.4c-5-5.9-13.3-28.7-24.3-30.2c-11-1.5-25.4,5.8-30.1,1.6
					c-6.8-6-15.6-15.9-15.6-15.9s54.4-34.5,76.1-18.5C1817.5,677.9,1825.1,701.3,1800.9,729.4z"/>
				<g>
					<path class="st38" d="M1765.4,1193.5c0-0.4,4.2-37.2,3-69.3c-0.5-13.5-0.1-29.5,0.3-44.9c0.6-22,1.9-43.1-0.1-56.9
						c-3.4-23.6-2.7-130.9-1.3-142.5c1.4-11.3,0.1-23.8-1.2-27.5c-1.3-3.8,4.2-24.7,4.3-25l-0.6-0.1c-0.3,0.9-6.2,21.5-4.9,25.5
						c1.3,3.7,3.1,15.8,1.8,27.1c-1.4,11.6-4.1,118.9-0.7,142.5c2,13.7,2.7,35,2.1,56.9c-0.4,15.4-0.8,31.3-0.3,44.9
						c1.2,32-4.9,68.9-4.9,69.3H1765.4z"/>
				</g>
				<path class="st35" d="M1658.1,899c0,0-16.4,25.1,0.8,31.7c17.2,6.6,19-0.4,19-0.4L1658.1,899z"/>
				<path class="st35" d="M1795.4,914.4c0,0-2.6,4.7-2.3,9c0.3,4.4,2.6,11.1,2.6,11.1s101.1,19.2,120.8,3.1
					c21.1-17.2-18.1-146.4-34.8-159c-7.2-5.4-22.4-8.8-36.5-10.8c-7.7-1.1-15.1-1.8-20.6-2.2c-5.7-0.4-9.3-0.6-9.3-0.6l2.3,7.5
					l8.9,29.2l10.3,34c0,0,30.9,56.6,31.9,62C1869.7,903.1,1795.4,914.4,1795.4,914.4z"/>
				<path class="st36" d="M1781.3,818.3c0,0,25.8-10,44.3-19.1c12.1-5.9,18.3-17.1,19.6-31.3c-7.7-1.1-15.1-1.8-20.6-2.2
					c-0.9,0.3-1.4,0.4-1.4,0.4l-5.6,6.5L1781.3,818.3z"/>
				<path class="st35" d="M1770.1,827.4l40.2-68.2c0,0,15,2.7,20,6.9c0,0-2.6,20.5-4.6,25c0,0-7.8-0.8-8.9-0.2c0,0,3.8,5.1,4.9,5.7
					C1821.7,796.7,1786.8,811.1,1770.1,827.4z"/>
				<ellipse class="st39" cx="1760" cy="869.8" rx="3.2" ry="2.9"/>
				<ellipse class="st39" cx="1760" cy="1030.6" rx="3.2" ry="2.9"/>
				<ellipse class="st39" cx="1758.4" cy="957.1" rx="3.2" ry="2.9"/>
				<ellipse class="st39" cx="1758.4" cy="1100.4" rx="3.2" ry="2.9"/>
				<path class="st40" d="M1797.3,781.2c0,0-11.2,4.9-29.2,1.9l2,44.3L1797.3,781.2z"/>
				<g>
					<polygon class="st41" points="1726.7,833.6 1622.1,842 1685.9,942.9 1784.4,937.8 					"/>
					<path class="st38" d="M1717,833.2c0,0,0-14.3-8.9-13.3c-8.9,1-11.5,15.3-11.5,15.3L1717,833.2z"/>
					<polygon class="st25" points="1622.7,840.7 1727.4,832.3 1785,936.6 1784.3,937.8 1726.7,833.6 1622,842 					"/>
					<path class="st35" d="M1708.1,819.9c0,0-14.8,6.5-9.6,27.1c5.2,20.7,11.7,32,7.9,44.3l-70.5,5.8c0,0,7.7-16.3-0.9-32.7
						c-8.5-16.5-2.5-35.3,5.3-36.9L1708.1,819.9z"/>
				</g>
				<path class="st34" d="M1672.9,924.1c0,0,10.7-11.5,8.5-19.7c-2.2-8.3-10.2-10.2-15.1-7.3c-4.9,2.9-12,9.6-10.6,14.8
					C1657.1,917,1667.5,926.5,1672.9,924.1z"/>
				<path class="st34" d="M1800.8,917.3c0,0-18.1-7.1-26.5-5c-8.3,2.1-19.5,3.6-20.4,6.2c-0.9,2.7,6,12.5,16.2,13
					c10.2,0.5,28.2,4.7,32.5,0C1806.9,926.7,1800.8,917.3,1800.8,917.3z"/>
			</g>
		</g>
		<g>
			<path class="st42" d="M2736.3,1448.3c-5.2,0.1-10.2-0.4-15.1-1.1c5.7-3.8,17.8-11.5,27.7-17c13.4-7.5,21-20,2.1-22.1
				c-16.1-1.8-28.8,29.5-32.2,38.8c-2.2-0.4-4.4-0.8-6.5-1.2c2.6-6.6,8.3-20.7,13.7-30.4c7.3-13.2,33-35.5,7.3-38.1
				c-22.9-2.3-28.9,54.2-30,66.7c-4.6-0.9-8.6-1.5-11.8-1.2c-7.3,0.5-14.3,7.6-10.2,10.7h77.2
				C2756,1451.5,2749.5,1448,2736.3,1448.3z"/>
			<path class="st42" d="M267.5,1438.7C267.5,1438.7,267.5,1438.7,267.5,1438.7c-11.7-25.1-36.9-73.2-56.1-67.5
				c-18.9,5.6,23.6,47.3,47.6,69c-4.8,0.9-9.1,1.8-13,2.6c-18.5-15-49-39.5-51.8-29.4c-2.4,8.8,23.7,22.2,43.8,31
				c-12.5,2.4-21.9,3.6-33.6,1.2c-19.3-3.9-29.1,7.7-29.1,7.7h147.2C322.5,1453.3,298.2,1433.6,267.5,1438.7z"/>
			<path class="st43" d="M2809.8,1459.7H124.5c-1.7,0-3.2-1.4-3.2-3.2v0c0-1.7,1.4-3.2,3.2-3.2h2685.3c1.7,0,3.2,1.4,3.2,3.2l0,0
				C2813,1458.3,2811.6,1459.7,2809.8,1459.7z"/>
		</g>
	</g>
</g>
</svg>
