<?xml version="1.0" encoding="utf-8"?>
<!-- Generator: Adobe Illustrator 19.0.0, SVG Export Plug-In . SVG Version: 6.00 Build 0)  -->
<svg version="1.1" xmlns="http://www.w3.org/2000/svg" xmlns:xlink="http://www.w3.org/1999/xlink" x="0px" y="0px"
	 viewBox="0 0 3500 2500" style="enable-background:new 0 0 3500 2500;" xml:space="preserve">
<style type="text/css">
	.st0{fill:#C2E6FF;}
	.st1{fill:#94CBEA;}
	.st2{fill:#184655;}
	.st3{fill:#50BFA5;}
	.st4{fill:#EFEEEE;}
	.st5{fill:#FFFFFF;}
	.st6{fill:#DB4531;}
	.st7{filter:url(#Adobe_OpacityMaskFilter);}
	.st8{filter:url(#Adobe_OpacityMaskFilter_1_);}
	.st9{mask:url(#SVGID_1_);fill:url(#SVGID_2_);}
	.st10{fill:url(#SVGID_3_);}
	.st11{clip-path:url(#SVGID_5_);}
	.st12{fill:#F47458;}
	.st13{fill:#FFD9B3;}
	.st14{fill:#F48561;}
	.st15{fill:#466EB6;}
	.st16{fill:#9BC1F9;}
	.st17{fill:#FAE0B2;}
	.st18{fill:#466EB5;}
	.st19{fill:#355389;}
	.st20{fill:#C4C4C4;}
	.st21{fill:#13375B;}
	.st22{fill:#86B1F2;}
	.st23{fill:none;}
	.st24{fill:#96D9C9;}
	.st25{fill:#3C8F7C;}
</style>
<g id="Background">
</g>
<g id="Object">
	<g>
		<path class="st0" d="M1609.8,2226.1c-469.5,0-996.9-6.2-1037.4-512c-40.6-505.8,198.3-754.1,451.5-863.2
			c253.3-109.1,254.7-519.8,725.5-509.7c470.8,10.1,498.7,323.6,728.1,496.4c229.5,172.9,385.8,586,300,934.6
			S2135.1,2226.1,1609.8,2226.1z"/>
		<g>
			<polygon class="st1" points="1748.5,660.9 1710.2,622.6 1748.5,584.2 1738.6,574.3 1700.3,612.7 1662,574.3 1652.1,584.2 
				1690.4,622.6 1652.1,660.9 1662,670.8 1700.3,632.5 1738.6,670.8 			"/>
			<polygon class="st1" points="1593.3,988.2 1554.9,949.8 1593.3,911.5 1583.4,901.6 1545,939.9 1506.7,901.6 1496.8,911.5 
				1535.1,949.8 1496.8,988.2 1506.7,998.1 1545,959.7 1583.4,998.1 			"/>
			<polygon class="st1" points="2558.8,1358.9 2558.8,1304.6 2613,1304.6 2613,1290.7 2558.8,1290.7 2558.8,1236.4 2544.8,1236.4 
				2544.8,1290.7 2490.6,1290.7 2490.6,1304.6 2544.8,1304.6 2544.8,1358.9 			"/>
			<g>
				<circle class="st1" cx="2247.8" cy="1798.6" r="13.4"/>
				<circle class="st1" cx="2176.4" cy="1798.6" r="13.4"/>
				<circle class="st1" cx="2105.1" cy="1798.6" r="13.4"/>
				<circle class="st1" cx="2033.7" cy="1798.6" r="13.4"/>
				<circle class="st1" cx="1962.3" cy="1798.6" r="13.4"/>
				<circle class="st1" cx="1962.3" cy="1870" r="13.4"/>
				<circle class="st1" cx="1962.3" cy="1941.4" r="13.4"/>
				<circle class="st1" cx="1962.3" cy="2012.7" r="13.4"/>
				<circle class="st1" cx="2033.7" cy="1870" r="13.4"/>
				<circle class="st1" cx="2033.7" cy="1941.4" r="13.4"/>
				<circle class="st1" cx="2033.7" cy="2012.7" r="13.4"/>
				<circle class="st1" cx="2105.1" cy="1870" r="13.4"/>
				<circle class="st1" cx="2105.1" cy="1941.4" r="13.4"/>
				<circle class="st1" cx="2105.1" cy="2012.7" r="13.4"/>
				<circle class="st1" cx="2176.4" cy="1870" r="13.4"/>
				<circle class="st1" cx="2176.4" cy="1941.4" r="13.4"/>
				<circle class="st1" cx="2176.4" cy="2012.7" r="13.4"/>
				<circle class="st1" cx="2247.8" cy="1870" r="13.4"/>
				<circle class="st1" cx="2247.8" cy="1941.4" r="13.4"/>
				<circle class="st1" cx="2247.8" cy="2012.7" r="13.4"/>
				<circle class="st1" cx="1962.3" cy="2084.1" r="13.4"/>
				<circle class="st1" cx="2033.7" cy="2084.1" r="13.4"/>
				<circle class="st1" cx="2105.1" cy="2084.1" r="13.4"/>
				<circle class="st1" cx="2176.4" cy="2084.1" r="13.4"/>
				<circle class="st1" cx="2247.8" cy="2084.1" r="13.4"/>
			</g>
			<g>
				<circle class="st1" cx="792.7" cy="1522.8" r="13.4"/>
				<circle class="st1" cx="864" cy="1522.8" r="13.4"/>
				<circle class="st1" cx="935.4" cy="1522.8" r="13.4"/>
				<circle class="st1" cx="1006.8" cy="1522.8" r="13.4"/>
				<circle class="st1" cx="1078.1" cy="1522.8" r="13.4"/>
				<circle class="st1" cx="1078.1" cy="1451.5" r="13.4"/>
				<circle class="st1" cx="1078.1" cy="1380.1" r="13.4"/>
				<circle class="st1" cx="1078.1" cy="1308.7" r="13.4"/>
				<circle class="st1" cx="1006.8" cy="1451.5" r="13.4"/>
				<circle class="st1" cx="1006.8" cy="1380.1" r="13.4"/>
				<circle class="st1" cx="1006.8" cy="1308.7" r="13.4"/>
				<circle class="st1" cx="935.4" cy="1451.5" r="13.4"/>
				<circle class="st1" cx="935.4" cy="1380.1" r="13.4"/>
				<circle class="st1" cx="864" cy="1451.5" r="13.4"/>
				<circle class="st1" cx="1078.1" cy="1237.4" r="13.4"/>
			</g>
			<g>
				<path class="st1" d="M823.7,1884.4c-8.8,0-15.9-7.1-15.9-15.9c0-8.8,7.1-15.9,15.9-15.9c8.8,0,15.9,7.1,15.9,15.9
					C839.7,1877.3,832.5,1884.4,823.7,1884.4z M823.7,1857.6c-6,0-10.9,4.9-10.9,10.9c0,6,4.9,10.9,10.9,10.9
					c6,0,10.9-4.9,10.9-10.9C834.7,1862.5,829.8,1857.6,823.7,1857.6z"/>
			</g>
			<g>
				<path class="st1" d="M1622.4,1970.7c-8.8,0-15.9-7.1-15.9-15.9s7.1-15.9,15.9-15.9s15.9,7.1,15.9,15.9
					S1631.2,1970.7,1622.4,1970.7z M1622.4,1943.9c-6,0-10.9,4.9-10.9,10.9c0,6,4.9,10.9,10.9,10.9s10.9-4.9,10.9-10.9
					C1633.3,1948.8,1628.4,1943.9,1622.4,1943.9z"/>
			</g>
			<g>
				<path class="st1" d="M1266.5,858.9c-8.8,0-15.9-7.1-15.9-15.9c0-8.8,7.1-15.9,15.9-15.9c8.8,0,15.9,7.1,15.9,15.9
					C1282.4,851.8,1275.2,858.9,1266.5,858.9z M1266.5,832.1c-6,0-10.9,4.9-10.9,10.9c0,6,4.9,10.9,10.9,10.9s10.9-4.9,10.9-10.9
					C1277.4,837,1272.5,832.1,1266.5,832.1z"/>
			</g>
			<g>
				<path class="st1" d="M935.4,1109.2c-8.8,0-15.9-7.1-15.9-15.9s7.1-15.9,15.9-15.9s15.9,7.1,15.9,15.9S944.2,1109.2,935.4,1109.2
					z M935.4,1082.3c-6,0-10.9,4.9-10.9,10.9s4.9,10.9,10.9,10.9s10.9-4.9,10.9-10.9S941.4,1082.3,935.4,1082.3z"/>
			</g>
			<g>
				<path class="st1" d="M1738.6,1467.4c-8.8,0-15.9-7.1-15.9-15.9s7.1-15.9,15.9-15.9s15.9,7.1,15.9,15.9
					S1747.4,1467.4,1738.6,1467.4z M1738.6,1440.5c-6,0-10.9,4.9-10.9,10.9c0,6,4.9,10.9,10.9,10.9s10.9-4.9,10.9-10.9
					C1749.5,1445.4,1744.6,1440.5,1738.6,1440.5z"/>
			</g>
			<g>
				<path class="st1" d="M2058.2,492.8c-8.8,0-15.9-7.1-15.9-15.9c0-8.8,7.1-15.9,15.9-15.9c8.8,0,15.9,7.1,15.9,15.9
					C2074.1,485.7,2067,492.8,2058.2,492.8z M2058.2,465.9c-6,0-10.9,4.9-10.9,10.9c0,6,4.9,10.9,10.9,10.9c6,0,10.9-4.9,10.9-10.9
					C2069.1,470.8,2064.2,465.9,2058.2,465.9z"/>
			</g>
			<g>
				<path class="st1" d="M2274.7,721.4c-8.8,0-15.9-7.1-15.9-15.9c0-8.8,7.1-15.9,15.9-15.9s15.9,7.1,15.9,15.9
					C2290.7,714.2,2283.5,721.4,2274.7,721.4z M2274.7,694.5c-6,0-10.9,4.9-10.9,10.9c0,6,4.9,10.9,10.9,10.9s10.9-4.9,10.9-10.9
					C2285.7,699.4,2280.8,694.5,2274.7,694.5z"/>
			</g>
		</g>
		<g>
			<polygon class="st2" points="1972.9,1282.7 2003.2,1289.7 2007.2,1272.5 			"/>
			<g>
				<path class="st2" d="M2357.3,863.2c-72.7-54.2-149.4-90.6-230.3-109.3c-80.9-18.7-165.8-19.6-254.9-2.9
					c-59.3,242.8-47.5,442,131.1,538.5C2206,1281.2,2304,1107.4,2357.3,863.2z"/>
				<path class="st3" d="M2325,865l-0.2,0.8c-1.5,6.8-3.1,13.5-4.7,20.1c-2.2,9-4.4,18-6.7,26.8c-1.8,7-3.6,13.8-5.6,20.6
					c-4.9,17.4-10.1,34.4-15.6,50.9c-0.1,0.2-0.1,0.4-0.2,0.5c-5.9,17.7-12.2,34.7-18.9,51.1l0,0c-6.7,16.4-13.8,32.2-21.4,47.2
					c-11.7,23.4-24.6,45.1-38.6,64.9l0,0c-26.1,36.9-56.4,67.2-91.7,89.7c-20.9,13.3-43.6,23.9-68.2,31.4
					c-15.2,4.7-31.1,8.2-47.8,10.5c-10.5,1.4-21.4,2.4-32.6,2.9c-4-2.2-8-4.4-11.8-6.7c-12.4-7.3-23.9-15.1-34.6-23.5
					c-9.5-7.4-18.2-15.1-26.4-23.3c-8.4-8.4-16.3-17.3-23.4-26.5c-3-3.9-5.9-7.8-8.6-11.8c-3.7-5.2-7.1-10.6-10.4-16.1
					c-1.8-3-3.6-6-5.2-9.1c-0.7-1.2-1.3-2.4-1.9-3.6c-0.1-0.2-0.2-0.4-0.3-0.5c-5.3-10-10-20.3-14.2-30.9
					c-7.2-18.3-12.8-37.5-16.9-57.6c-2.4-11.7-4.4-23.8-5.8-36.1c-1.5-12.8-2.5-25.9-3-39.2c-0.3-5.6-0.4-11.2-0.5-16.9
					c-0.1-7.5,0-15,0.2-22.7c0.1-5.8,0.4-11.7,0.7-17.6c0-0.2,0-0.5,0-0.7c0.7-13.7,1.8-27.6,3.3-41.8c2.4-22.7,5.7-45.9,9.9-69.7
					c4.9-27.4,10.9-55.6,17.9-84.3c24.8-4.7,49.3-8,73.4-9.9c14.8-1.1,29.4-1.8,43.9-2c16.4-0.2,32.7,0.3,48.8,1.5
					c19.6,1.4,38.9,3.8,58,7.1c4.6,0.8,9.1,1.6,13.7,2.5c5.7,1.1,11.4,2.4,17.1,3.7c5.5,1.3,11,2.6,16.5,4.1
					c0.3,0.1,0.5,0.1,0.8,0.2c6.3,1.7,12.6,3.5,18.9,5.4c8,2.4,15.9,5,23.8,7.8c5.8,2,11.5,4.1,17.3,6.4c2.5,1,5.1,2,7.6,3
					c10.6,4.2,21.1,8.8,31.5,13.7c4.8,2.3,9.6,4.6,14.4,7c6.9,3.5,13.8,7.1,20.6,10.9c10.2,5.6,20.4,11.6,30.5,17.8
					c8.2,5.1,16.4,10.5,24.5,16c8.1,5.5,16.1,11.3,24,17.2C2326.3,859.1,2325.7,862,2325,865z"/>
				<path class="st4" d="M2250.7,911.4l-0.2,0.8c-1.6,6.9-3.3,13.6-5.1,20.3c-1.6,6.1-3.2,12.1-4.8,18.1c-0.9,3.1-1.7,6.1-2.6,9.2
					c-2.1,7.2-4.2,14.2-6.4,21.1c-5.9,18.5-12.3,36.3-19.2,53.2c-2.4,5.7-4.8,11.4-7.3,16.9c-6.4,14.2-13.3,27.6-20.6,40.3
					c-4,6.9-8.1,13.5-12.4,19.9c-16.3,24.6-34.9,45.7-56,62.7c-11.3,9.1-23.2,17-36,23.6c-10.1,5.2-20.7,9.7-31.7,13.3
					c-11.8,3.8-24.3,6.7-37.3,8.6c-3.5,0.5-7,0.9-10.5,1.3c-4.4,0.5-9,0.8-13.5,1c-2-1.1-4-2.2-5.9-3.4c-7-4-13.6-8.4-19.9-12.9
					c-2.2-1.6-4.4-3.2-6.5-4.8c-1.3-1-2.7-2.1-3.9-3.1c-9.5-7.8-18.2-16.1-26-24.9c-3.2-3.7-6.3-7.5-9.3-11.4
					c-3.9-5.1-7.5-10.4-10.9-15.8c-2.6-4.1-5-8.3-7.3-12.6c-0.1-0.2-0.2-0.4-0.3-0.5c-5.3-9.9-9.9-20.3-13.7-31.2
					c-6.6-18.5-11.3-38.4-14.1-59.3c-1.7-12.2-2.7-24.8-3.2-37.8c-0.5-13.4-0.4-27.2,0.3-41.3c0.3-5.9,0.7-11.8,1.1-17.9
					c0.6-7.9,1.4-15.9,2.4-24.1c0.7-6.2,1.5-12.4,2.4-18.6c0-0.2,0.1-0.5,0.1-0.7c2.1-14.5,4.6-29.3,7.5-44.4
					c3.2-16.4,6.9-33.2,11.1-50.2c10.1-2,20.1-3.7,30-5.1c2-0.3,4-0.6,6-0.8c12.7-1.6,25.3-2.7,37.7-3.3c3.6-0.2,7.1-0.3,10.6-0.4
					c0.1,0,0.3,0,0.4,0c12.7-0.3,25.2-0.1,37.7,0.7c7.3,0.4,14.6,1.1,21.9,1.9c0.3,0,0.6,0.1,0.9,0.1c3.5,0.4,6.9,0.8,10.3,1.3
					c4,0.5,8.1,1.2,12.1,1.9c8.1,1.4,16.1,3,24.1,4.8c0.8,0.2,1.7,0.4,2.5,0.6l0.7,0.2c6.4,1.5,12.9,3.3,19.2,5.1
					c14.3,4.1,28.3,9,42.2,14.7c0.3,0.1,0.6,0.2,0.8,0.3c12,5,23.9,10.5,35.6,16.6c1.3,0.7,2.7,1.4,4,2.1
					c15.7,8.4,31.2,17.8,46.5,28.3c1.6,1.1,3.1,2.2,4.7,3.3c5.5,3.8,10.9,7.8,16.4,12C2253.8,897.8,2252.3,904.6,2250.7,911.4z"/>
			</g>
			<polygon class="st3" points="2160.6,1012.4 2071.4,991.8 2092,902.5 2032.5,888.8 2011.9,978 1922.6,957.4 1908.9,1016.9 
				1998.1,1037.5 1977.5,1126.8 2037,1140.5 2057.6,1051.3 2146.9,1071.9 			"/>
			<g>
				<path class="st5" d="M1866.3,962.7c-1.3,27.8-0.5,54.2,2.9,79.1l-50.1,31.3c-4.9-23.9-7.9-49-8.9-75.3L1866.3,962.7z"/>
				<path class="st5" d="M1915.5,1161.1l-47.5,29.6c-5.7-8.1-10.9-16.5-15.6-25.2c-0.7-1.4-1.5-2.7-2.2-4.1l46.8-29.2
					C1902.4,1142.4,1908.5,1152,1915.5,1161.1z"/>
				<path class="st5" d="M2231.5,980.9l76.4-47.7c-4.9,17.6-10.2,34.8-15.8,51.4c-5.9,17.7-12.2,34.7-18.9,51.1l0,0l-88.8,55.5
					c7.3-12.6,14.2-26.1,20.6-40.3C2214.8,1029.2,2223.6,1005.8,2231.5,980.9z"/>
				<path class="st5" d="M2325,865c-3.6,16.2-7.5,32.1-11.6,47.7l-75.5,47.1c0.9-3.1,1.7-6.1,2.6-9.2c3.6-12.7,6.9-25.8,10.1-39.2
					L2325,865z"/>
				<path class="st5" d="M1961.1,1205.4c6.3,4.5,12.9,8.8,19.9,12.9l-54.5,34c-19.2-15-35.7-31.6-49.8-49.8l48.1-30.1
					c8.8,10.1,18.8,19.4,29.9,28.1C1956.8,1202.2,1958.9,1203.8,1961.1,1205.4z"/>
				<path class="st5" d="M2156.6,764.2l-70.8,44.2l-0.7-0.2c-0.8-0.2-1.7-0.4-2.5-0.6c-11.9-2.8-24-5-36.1-6.7
					c-3.7-0.5-7.5-1-11.2-1.4l77.9-48.7C2127.8,754.8,2142.3,759.2,2156.6,764.2z"/>
				<path class="st5" d="M1867.4,944.8l-57.6,36c-0.2-13.4,0.1-27.1,0.9-41l61.6-38.5C1870.1,916.2,1868.5,930.7,1867.4,944.8z"/>
				<path class="st5" d="M2227.4,794.3c6.9,3.5,13.8,7.1,20.6,10.9l-64.2,40.1c-11.7-6.2-23.6-11.7-35.6-16.6
					c-14.2-5.8-28.5-10.9-43.1-15.1l68.8-43c2.5,1,5.1,2,7.6,3C2197,779.8,2212.2,786.7,2227.4,794.3z"/>
			</g>
			<g>
				<path class="st5" d="M2147.3,828.3L1866,1004c-0.5-13.4-0.4-27.2,0.3-41.3c0.3-5.9,0.7-11.8,1.1-17.9c0.6-7.9,1.4-15.9,2.4-24.1
					l188.8-117.9c8.1,1.4,16.1,3,24.1,4.8c0.8,0.2,1.7,0.4,2.5,0.6l0.7,0.2c6.4,1.5,12.9,3.3,19.2,5.1
					C2119.3,817.7,2133.4,822.6,2147.3,828.3z"/>
				<path class="st5" d="M2036.2,799.7l-164,102.4c0-0.2,0.1-0.5,0.1-0.7c2.1-14.5,4.6-29.3,7.5-44.4l95.9-59.9
					c12.7-0.3,25.2-0.1,37.7,0.7c7.3,0.4,14.6,1.1,21.9,1.9C2035.5,799.6,2035.9,799.7,2036.2,799.7z"/>
				<path class="st5" d="M2245.4,932.5c-1.6,6.1-3.2,12.1-4.8,18.1c-0.9,3.1-1.7,6.1-2.6,9.2c-2.1,7.2-4.2,14.2-6.4,21.1
					c-5.9,18.5-12.3,36.3-19.2,53.2l-261.6,163.4c-9.5-7.8-18.2-16.1-26-24.9c-3.2-3.7-6.3-7.5-9.3-11.4
					c-3.9-5.1-7.5-10.4-10.9-15.8L2245.4,932.5z"/>
				<path class="st5" d="M2250.7,911.4l-0.2,0.8l-353.2,220.6c-0.1-0.2-0.2-0.4-0.3-0.5c-5.3-9.9-9.9-20.3-13.7-31.2L2238.9,879
					c5.5,3.8,10.9,7.8,16.4,12C2253.8,897.8,2252.3,904.6,2250.7,911.4z"/>
			</g>
		</g>
		<g>
			<path class="st6" d="M1813.6,913c-46.1,4.5-109.6,55.5-85.7,139c-56.7-65.7-134.2-40.5-163.2-4.4
				c-43.9,54.6-27.5,121.2,31.1,167.2c96.5,75.8,264.9,82.9,264.9,82.9s86.4-144.8,75.8-267C1930.1,956.4,1883.3,906.2,1813.6,913z"
				/>
			<defs>
				<filter id="Adobe_OpacityMaskFilter" filterUnits="userSpaceOnUse" x="1539.8" y="912.4" width="397.6" height="385.3">
					<feFlood  style="flood-color:white;flood-opacity:1" result="back"/>
					<feBlend  in="SourceGraphic" in2="back" mode="normal"/>
				</filter>
			</defs>
			<mask maskUnits="userSpaceOnUse" x="1539.8" y="912.4" width="397.6" height="385.3" id="SVGID_1_">
				<g class="st7">
					<defs>
						<filter id="Adobe_OpacityMaskFilter_1_" filterUnits="userSpaceOnUse" x="1539.8" y="912.4" width="397.6" height="385.3">
							<feFlood  style="flood-color:white;flood-opacity:1" result="back"/>
							<feBlend  in="SourceGraphic" in2="back" mode="normal"/>
						</filter>
					</defs>
					<mask maskUnits="userSpaceOnUse" x="1539.8" y="912.4" width="397.6" height="385.3" id="SVGID_1_">
						<g class="st8">
						</g>
					</mask>
					
						<linearGradient id="SVGID_2_" gradientUnits="userSpaceOnUse" x1="5332.3188" y1="2256.4033" x2="5328.8745" y2="1811.9921" gradientTransform="matrix(0.8797 -0.4755 0.4755 0.8797 -3879.2236 1887.2906)">
						<stop  offset="0" style="stop-color:#FFFFFF"/>
						<stop  offset="0.1023" style="stop-color:#FAFAFA"/>
						<stop  offset="0.226" style="stop-color:#EBEBEB"/>
						<stop  offset="0.3607" style="stop-color:#D3D3D3"/>
						<stop  offset="0.5034" style="stop-color:#B0B0B0"/>
						<stop  offset="0.6523" style="stop-color:#848484"/>
						<stop  offset="0.8064" style="stop-color:#4F4F4F"/>
						<stop  offset="0.962" style="stop-color:#101010"/>
						<stop  offset="1" style="stop-color:#000000"/>
						<stop  offset="1" style="stop-color:#FFFFFF"/>
					</linearGradient>
					<path class="st9" d="M1813.6,913c-46.1,4.5-109.6,55.5-85.7,139c-56.7-65.7-134.2-40.5-163.2-4.4
						c-43.9,54.6-27.5,121.2,31.1,167.2c96.5,75.8,264.9,82.9,264.9,82.9s86.4-144.8,75.8-267C1930.1,956.4,1883.3,906.2,1813.6,913
						z"/>
				</g>
			</mask>
			
				<linearGradient id="SVGID_3_" gradientUnits="userSpaceOnUse" x1="5332.3188" y1="2256.4033" x2="5328.8745" y2="1811.9921" gradientTransform="matrix(0.8797 -0.4755 0.4755 0.8797 -3879.2236 1887.2906)">
				<stop  offset="0" style="stop-color:#000000"/>
				<stop  offset="0.1076" style="stop-color:#050505"/>
				<stop  offset="0.2376" style="stop-color:#141414"/>
				<stop  offset="0.3791" style="stop-color:#2C2C2C"/>
				<stop  offset="0.529" style="stop-color:#4E4E4E"/>
				<stop  offset="0.6855" style="stop-color:#7A7A7A"/>
				<stop  offset="0.8448" style="stop-color:#AFAFAF"/>
				<stop  offset="1" style="stop-color:#EAEAEA"/>
				<stop  offset="1" style="stop-color:#FFFFFF"/>
			</linearGradient>
			<path class="st10" d="M1813.6,913c-46.1,4.5-109.6,55.5-85.7,139c-56.7-65.7-134.2-40.5-163.2-4.4
				c-43.9,54.6-27.5,121.2,31.1,167.2c96.5,75.8,264.9,82.9,264.9,82.9s86.4-144.8,75.8-267C1930.1,956.4,1883.3,906.2,1813.6,913z"
				/>
			<path class="st5" d="M1629.9,1226.8c13.7-8.4,27.6-16.7,41.5-24.9l41.7-24.5l-2.1,3.3l0.7-43l0.1-8.2l7.6,4.1
				c11.5,6.1,22.9,12.6,34.4,18.8c11.4,6.3,22.7,12.9,34.1,19.3l-11.2,6.9c-1.6-15.3-2.6-30.6-3.9-45.8l-1.6-22.9l-1.5-23l-0.9-14.6
				l12.3,7.5l17.9,11c6,3.7,12,7.3,17.9,11.1l17.8,11.3c6,3.7,11.8,7.6,17.7,11.5l-6.8,2.7l5.3-15.5l5.5-15.4l0.5-1.3l1-0.5
				c22.4-11.2,45-22.3,67.6-33.2c-21.5,13-43.1,25.8-64.8,38.4l1.4-1.8l-3.7,16l-3.9,15.9l-1.3,5.5l-5.4-2.8
				c-6.2-3.2-12.5-6.3-18.7-9.7l-18.6-9.9c-6.2-3.2-12.3-6.7-18.5-10l-18.4-10.1l11.3-7.1l1.9,22.9l1.8,22.9
				c0.9,15.3,2.2,30.6,2.9,45.9l0.7,14.3l-11.8-7.4c-11.1-6.9-22.2-13.8-33.2-20.8c-11-7.1-22-14-32.9-21.3l7.7-4.2l-3,42.9
				l-0.2,2.4l-1.9,0.9l-43.3,21.5C1659,1212.8,1644.5,1219.9,1629.9,1226.8z"/>
		</g>
		<g>
			<defs>
				<path id="SVGID_4_" d="M1609.8,2226.1c-469.5,0-996.9-6.2-1037.4-512c-40.6-505.8,198.3-754.1,451.5-863.2
					c253.3-109.1,254.7-519.8,725.5-509.7c470.8,10.1,498.7,323.6,728.1,496.4c229.5,172.9,385.8,586,300,934.6
					S2135.1,2226.1,1609.8,2226.1z"/>
			</defs>
			<clipPath id="SVGID_5_">
				<use xlink:href="#SVGID_4_"  style="overflow:visible;"/>
			</clipPath>
			<g id="XMLID_81_" class="st11">
				<g>
					<path class="st5" d="M2210.7,1461.5c-0.1,0.1-0.4,0.3-0.8,0.7c-3.2,2.5-6.2,5.2-9.1,8.1c-0.2,0.1-0.3,0.3-0.5,0.4
						c-26.9,26-44.1,61.9-45.7,101.8c-0.1,2-0.2,4.1-0.2,6.1v89.6l-2,32.1c-36.9,25.5-72.8,21.6-102.5,2.8
						c-33.6-21.4-59.2-61.9-68.9-100.5c-18.3-72.7-32.3-161.2-32.3-161.2l70.8-2l84.5,144.6
						C2140.3,1520.1,2181.6,1482.3,2210.7,1461.5z"/>
					<g>
						<g>
							<path class="st12" d="M1997.5,1437.2L1997.5,1437.2c-5.6,1.9-11.8-1.1-13.7-6.7l-15.2-44.8c-1.9-5.6,1.1-11.8,6.7-13.7l0,0
								c5.6-1.9,11.8,1.1,13.7,6.7l15.2,44.8C2006.1,1429.2,2003.1,1435.3,1997.5,1437.2z"/>
							<path d="M1994,1440.3c-2,0-4-0.5-5.9-1.4c-3.2-1.6-5.6-4.3-6.7-7.6l-15.2-44.8c-2.3-6.9,1.4-14.5,8.3-16.8
								c3.4-1.1,7-0.9,10.1,0.7c3.2,1.6,5.6,4.3,6.7,7.6l15.2,44.8c1.1,3.4,0.9,7-0.7,10.1c-1.6,3.2-4.3,5.6-7.6,6.7
								C1996.9,1440,1995.4,1440.3,1994,1440.3z M1978.8,1373.9c-0.9,0-1.8,0.1-2.7,0.4c-4.3,1.5-6.6,6.2-5.2,10.5l15.2,44.8
								c1.5,4.3,6.2,6.6,10.5,5.2c4.3-1.5,6.6-6.2,5.2-10.5l-15.2-44.8c-0.7-2.1-2.2-3.8-4.2-4.8
								C1981.3,1374.2,1980.1,1373.9,1978.8,1373.9z"/>
						</g>
						<g>
							<path class="st12" d="M1982.7,1421.3L1982.7,1421.3c-4.9,3.3-11.6,2.1-15-2.9l-26.6-39.2c-3.3-4.9-2.1-11.6,2.9-15l0,0
								c4.9-3.3,11.6-2.1,15,2.9l26.6,39.2C1988.9,1411.3,1987.6,1418,1982.7,1421.3z"/>
							<path d="M1976.6,1425.7c-4.3,0-8.4-2-11-5.8l-26.6-39.2c-2-2.9-2.7-6.5-2.1-10c0.7-3.5,2.7-6.5,5.6-8.5
								c6.1-4.1,14.3-2.5,18.4,3.5l26.6,39.2c2,2.9,2.7,6.5,2.1,10c-0.7,3.5-2.7,6.5-5.6,8.5l0,0
								C1981.8,1424.9,1979.2,1425.7,1976.6,1425.7z M1950,1365c-1.6,0-3.2,0.5-4.6,1.4c-1.8,1.2-3.1,3.1-3.5,5.3s0,4.4,1.3,6.2
								l26.6,39.2c2.6,3.8,7.7,4.8,11.5,2.2c3.8-2.6,4.8-7.7,2.2-11.5l-26.6-39.2C1955.3,1366.2,1952.7,1365,1950,1365z"/>
						</g>
						<g>
							<path class="st12" d="M1970.1,1416.5L1970.1,1416.5c-4.2,4.2-11,4.2-15.2,0l-33.5-33.5c-4.2-4.2-4.2-11,0-15.2l0,0
								c4.2-4.2,11-4.2,15.2,0l33.5,33.5C1974.3,1405.4,1974.3,1412.3,1970.1,1416.5z"/>
							<path d="M1962.5,1422.1c-3.5,0-6.9-1.4-9.4-3.9l-33.5-33.5c-2.5-2.5-3.9-5.8-3.9-9.4s1.4-6.9,3.9-9.4
								c2.5-2.5,5.8-3.9,9.4-3.9s6.9,1.4,9.4,3.9l33.5,33.5c5.2,5.2,5.2,13.6,0,18.8C1969.4,1420.8,1966,1422.1,1962.5,1422.1z
								 M1929,1367.1c-2.2,0-4.3,0.9-5.9,2.4s-2.4,3.6-2.4,5.9c0,2.2,0.9,4.3,2.4,5.9l33.5,33.5c1.6,1.6,3.6,2.4,5.9,2.4
								s4.3-0.9,5.9-2.4c1.6-1.6,2.4-3.6,2.4-5.9c0-2.2-0.9-4.3-2.4-5.9l-33.5-33.5C1933.3,1368,1931.2,1367.1,1929,1367.1z"/>
						</g>
						<path class="st13" d="M2014.9,1439.6c0,0-4.2-6.4-3.4-13.6c0.5-4.4,11.1-12,19-17c4.7-3,5.8-9.4,2.4-13.7l0,0
							c-2.8-3.6-7.7-4.7-11.7-2.7c-8.6,4.3-24.4,11-41.8,12.4c-19.2,1.5-46.4-20.3-59.5-32.1c-4.4-3.9-11.1-3.6-15.1,0.6l0,0
							c-4.4,4.6-3.9,12,1.1,16c8.6,6.9,21.3,17.2,29.6,25.2c13.5,13.1,17.7,26.7,17.7,26.7L2014.9,1439.6z"/>
						<g>
							<path class="st14" d="M1975.8,1415.9c-11.8-6.3-32.1-19.4-32.3-19.6l2.7-4.2c0.2,0.1,20.3,13.1,31.9,19.4L1975.8,1415.9z"/>
						</g>
					</g>
				</g>
				<g>
					<path class="st15" d="M2015.2,2630c0.9,0.4,20.3,10.4,13.5,31.1h-45c1-8.4,5.8-15.8,13.2-20.2
						C2004.1,2636.7,2010,2633.2,2015.2,2630z"/>
					<path class="st15" d="M2216.3,2600.8v31.7c-41.2-0.5-36.7-37.1-36.7-37.1c16.5-1.1,26.4-2.5,28.1-2.7c0.2,0,0.3,0,0.3,0h0.1
						C2212.6,2592.6,2216.3,2596.3,2216.3,2600.8z"/>
					<path class="st16" d="M2063.6,2599.5c3.3-2.1,6.9-4.4,10.9-6.9c0,0,4.6,0.6,12.8,1.4c11.9,1.1,31.1,2.5,54.2,2.5c2,0,4.1,0,6,0
						c12.5-0.1,23.2-0.5,32.1-1.1c0,0-4.5,36.6,36.7,37.1v28.6h-187.5c6.7-20.7-12.7-30.7-13.5-31.1c10.9-6.7,19-11.8,30.1-18.8
						C2050.5,2607.8,2056.4,2604.1,2063.6,2599.5z"/>
					<path class="st17" d="M2518.8,2569.4v23.3c0,0-0.1,0-0.3,0c-3.2,0.3-31.8,3.4-60.2,3.8c-1.9,0-4,0-6,0c-24.3,0-44.4-1.5-56-2.7
						c-6.7-0.7-10.5-1.3-10.5-1.3v-23.3h122.9H2518.8z"/>
					<path class="st18" d="M2526.7,2556.6l-18.9-622.9l-2.3,0.1c-5.1,0-10.1-0.5-15-1.5c-35.2-7-61.7-38-61.7-75.2h-55.5h-82.3
						l29.2,245.4l54,454.2l1.5,12.8h10h122.9h10.1h8.3L2526.7,2556.6z"/>
					<path class="st17" d="M2208,2569.4v23.3c0,0-0.1,0-0.3,0c-3.2,0.3-31.8,3.4-60.2,3.8c-1.9,0-4,0-6,0c-23.1,0-42.3-1.4-54.2-2.5
						c-7.9-0.8-12.3-1.4-12.3-1.4v-23.3h6.1H2208z"/>
					<path class="st18" d="M2291.1,1857h-55.5c0,35.6-22.4,65.5-62.2,74.1c-7.6,1.6-15.8,2.5-24.6,2.5l-82.1,622.8l-1.7,12.8h10h6.1
						H2208h11.2l2.8-12.8l98.3-454.2L2291.1,1857z"/>
					<path class="st19" d="M2217.3,2661.1v1c0,5.7-4.6,10.3-10.4,10.3h-216.3c-2.3,0-4.3-0.9-5.8-2.4c-1.5-1.5-2.4-3.5-2.4-5.7
						c0-1.1,0.1-2.2,0.2-3.2h45.4H2217.3z"/>
					<g>
						<polygon class="st19" points="2291.1,1857 2300.5,2193.8 2320.3,2102.4 						"/>
						<path class="st19" d="M2505.5,1857l2.3,76.6l-2.3,0.1c-5.1,0-10.1-0.5-15-1.5c-35.2-7-61.7-38-61.7-75.2H2505.5z"/>
						<path class="st19" d="M2158.9,1857h76.7c0,35.6-22.4,65.5-62.2,74.1c-7.6,1.6-15.8,2.5-24.6,2.5L2158.9,1857z"/>
					</g>
					<g>
						<g>
							<g id="XMLID_82_">
								<g>
									<path class="st16" d="M2521.3,2592.6l14,48.3h-0.5c-9-14.9-26.7-10.9-47.4-10.9h-70.2c-20.8,0-39.1-4-48.1,10.9h0
										l13.6-48.3H2521.3z"/>
									<path class="st15" d="M2541,2662.5v3.4h-178v-3.4c0-7.8,2.2-15.2,6.1-21.6h0c9-14.9,29.2-10.9,50-10.9h70.2
										c20.7,0,36.6-4,45.6,10.9C2538.7,2647.4,2541,2654.7,2541,2662.5z"/>
									<rect x="2361.6" y="2661.1" class="st19" width="180.7" height="11.3"/>
								</g>
							</g>
						</g>
						<g>
							<path class="st5" d="M2489.6,2601.4h-77.7c-0.7,0-1.2-0.6-1.2-1.2c0-0.7,0.5-1.2,1.2-1.2h77.7c0.7,0,1.2,0.5,1.2,1.2
								C2490.9,2600.8,2490.3,2601.4,2489.6,2601.4z"/>
						</g>
						<g>
							<path class="st5" d="M2489.6,2608.8h-77.7c-0.7,0-1.2-0.5-1.2-1.2c0-0.7,0.5-1.2,1.2-1.2h77.7c0.7,0,1.2,0.6,1.2,1.2
								C2490.9,2608.2,2490.3,2608.8,2489.6,2608.8z"/>
						</g>
						<g>
							<path class="st5" d="M2489.6,2616.2h-77.7c-0.7,0-1.2-0.5-1.2-1.2s0.5-1.2,1.2-1.2h77.7c0.7,0,1.2,0.5,1.2,1.2
								S2490.3,2616.2,2489.6,2616.2z"/>
						</g>
					</g>
				</g>
				<g>
					<path class="st5" d="M2545.5,2163c-70.7,11-132.6,17.2-186.1,20.3c-19,1.1-36.9,1.8-53.7,2.2c-140.2,3.1-207.3-16.1-207.3-16.1
						l39.8-343.6l8.4-167l2.9-58.7c0-8.4,0.5-16.7,1.5-24.9c0.6-4.6,1.3-9.1,2.2-13.6c11.2-56.9,46.8-104.7,98.2-123.5
						c-0.5,1-20.2,41.7-10.6,68l19.7,6.2l-11.2,11.3l66.4,209.8l84.4-210.7l-15-14.1l20.5-11.7c0,0,10.5-28.7,0-61.3
						c61.5,18.9,102.6,78.6,109,146.8c0.1,1,0.2,1.9,0.3,2.9c0.4,5,0.6,10.1,0.6,15.2v0.8l10.8,224.5L2545.5,2163z"/>
					<path class="st20" d="M2405.5,1497.1l-20.5,11.7l15,14.1l-84.4,210.7l-66.4-209.8l11.2-11.3l-19.7-6.2
						c-9.6-26.3,10.1-67,10.6-68c0,0,0,0,0,0c13.8-5.1,28.8-8.1,44.8-8.6c1.6-0.1,3.2-0.1,4.8-0.1h62.3c4,0,8,0.1,11.9,0.5
						c10.6,0.8,20.7,2.8,30.3,5.8c0,0,0,0,0,0C2416,1468.4,2405.5,1497.1,2405.5,1497.1z"/>
					<polygon class="st21" points="2292.5,1484.7 2324.2,1587.5 2365,1480.6 2354.2,1470.3 2333.1,1482.8 2309.9,1467.8 					"/>
					<path class="st19" d="M2284,1430.5c0,0-10.3,44.8,2.8,59.7l23.1-22.4c0,0,10.1,11.8,23.1,15c0,0,11.8-5,21.1-12.5l20.9,19.9
						c0,0,9.8-16.6,10.1-59.1C2385.1,1431.1,2317.7,1424.7,2284,1430.5z"/>
					<polygon class="st20" points="2315.7,1733.5 2305.7,2185.6 2325.9,1708 					"/>
				</g>
				<g>
					<circle class="st22" cx="2425.7" cy="1570.8" r="21.2"/>
					<g>
						<circle class="st19" cx="2425.7" cy="1570.8" r="12.5"/>
						<g>
							<path d="M2237.6,1638c-0.6,0-1.3,0-1.9-0.1l0.3-5c12.7,0.8,24.3-8.5,25.8-20.8l8-67.2c1.2-10.4-1.7-20.9-8.2-28.6
								c-5.7-6.9-13.6-10.9-22.1-11.5c-8.6-0.5-16.8,2.5-23.4,8.6c-7.4,6.9-11.7,16.9-11.7,27.4l-0.4,67.7
								c-0.1,12.3,10.2,23,23,23.8l-0.3,5c-15.6-1-27.8-13.7-27.7-28.9l0.4-67.7c0.1-11.9,4.9-23.2,13.3-31
								c7.5-7,17.2-10.6,27.1-9.9c9.9,0.6,19,5.3,25.6,13.2c7.3,8.8,10.7,20.6,9.3,32.4l-8,67.2
								C2265,1627.2,2252.4,1638,2237.6,1638z"/>
						</g>
						<path class="st22" d="M2240.1,1641L2240.1,1641c3,0.2,5.5-2,5.7-4.9l0-0.1c0.2-2.9-2-5.4-4.9-5.6l-0.1,0
							c-2.9-0.2-5.4,2-5.6,4.9l0,0.1C2235,1638.3,2237.2,1640.8,2240.1,1641z"/>
						<path class="st22" d="M2221.7,1639.8L2221.7,1639.8c-3-0.2-5.2-2.7-5-5.6l0-0.1c0.2-2.9,2.7-5.1,5.6-4.9l0.1,0
							c2.9,0.2,5.1,2.7,4.9,5.6l0,0.1C2227.1,1637.8,2224.6,1640,2221.7,1639.8z"/>
						<g>
							<path d="M2429.5,1549.8l-5-0.3l3.9-68.3c-0.2-31.2-23.9-56.6-55-59.1l-65-5.2c-16.1-1.3-31.7,3.8-43.9,14.4
								c-12.2,10.6-19.5,25.3-20.5,41.4l-1.9,29.7l-5-0.3l1.9-29.7c1.1-17.5,9-33.4,22.2-44.9c13.2-11.5,30.1-17,47.6-15.6l65,5.2
								c16.2,1.3,31.2,8.5,42.3,20.5c11.1,11.9,17.2,27.4,17.3,43.7l0,0.2L2429.5,1549.8z"/>
						</g>
					</g>
				</g>
				<g>
					<path class="st17" d="M2374.5,1434.6c0,0,0.8,26-34.7,26c-35.5,0-39.9-23.7-39.9-23.7l-2.9-16.3l-2.7-10.6l-2.9-11l0-0.1
						l-10.4-40l104.1-9.1L2374.5,1434.6z"/>
					<path class="st17" d="M2391,1318.6c-1.7,48.4-32.1,93.1-80.5,91.4s-85.8-1.5-94.7-97.7c-4.5-48.2,42.4-86.2,90.8-84.5
						C2354.9,1229.6,2392.7,1270.2,2391,1318.6z"/>
					<path class="st21" d="M2333.3,1195.9c0,0-1.1-69.7-104.8-64.9c-95.5,4.4-100.1,221.9,71.6,141c14.9-7,32-8.4,47.7-3.1
						c2.4,0.8,4.6,1.6,6.3,2.5c9.2,4.5,7.9,30.3,7.9,30.3s12.3-9.7,15.8,7.1c3.6,16.8-12.2,19.4-12.2,19.4l10.4,43.8
						c0,0,16.4-26.7,27.7-73.3C2414.5,1253.5,2377.5,1182.1,2333.3,1195.9z"/>
					<path class="st14" d="M2299.6,1432.7l-5.3-22.6c0,0,55.8,4.6,75.8-29.3C2370.1,1380.7,2369.8,1426.8,2299.6,1432.7z"/>
				</g>
				<g>
					<path class="st21" d="M2449.9,1915.7l-116.5,28.7c-9.5,2.3-19.2-3.5-21.6-13.1l-45.9-186.3c-2.3-9.5,3.5-19.2,13.1-21.6
						l116.5-28.7c9.5-2.3,19.2,3.5,21.6,13.1l45.9,186.3C2465.3,1903.7,2459.5,1913.4,2449.9,1915.7z"/>
					<path class="st19" d="M2443,1918l-116.5,28.7c-9.5,2.3-19.2-3.5-21.6-13.1l-45.9-186.3c-2.3-9.5,3.5-19.2,13.1-21.6l116.5-28.7
						c9.5-2.3,19.2,3.5,21.6,13.1l45.9,186.3C2458.4,1906,2452.5,1915.7,2443,1918z"/>
					<circle class="st5" cx="2357.6" cy="1822.1" r="13.2"/>
					<circle class="st5" cx="2276.9" cy="1744.5" r="7.6"/>
					<circle class="st5" cx="2281" cy="1761.3" r="4.6"/>
				</g>
				<g>
					<g>
						<path class="st17" d="M2372.3,1857.4l-3.3-9c-4.2-11.3-14.7-18.6-26.1-19.3l-37.1-13.6c-6.1-2.3-13,0.9-15.3,7.1
							c-2.3,6.1,0.9,13,7.1,15.3l7.7,2.8c-0.5,0.2-0.9,0.5-1.4,0.8c-1.2-0.4-2.4-0.6-3.7-0.5l-25.5,0.7c-6.5,0.2-11.7,5.7-11.5,12.2
							c0.1,5.1,3.6,9.4,8.2,10.9c-2.1,2.2-3.3,5.2-3.2,8.4c0.2,5.6,4.2,10.1,9.4,11.3c-0.3,1-0.4,2.1-0.4,3.2
							c0.2,6.5,5.7,11.7,12.2,11.5l3.7-0.1c1.9,4.2,6.3,7.1,11.1,6.9l16-0.5c1.8,0.1,3.5,0.1,5.3-0.2l4.2-0.1c3.1-0.1,6-1.4,8-3.5
							l17.1-6.3C2370.1,1889.7,2378,1872.6,2372.3,1857.4z"/>
						<g>
							<polygon class="st14" points="2270,1865.8 2269.7,1863.4 2309.3,1859.4 2309.5,1861.9 							"/>
						</g>
						<g>
							
								<rect x="2292.2" y="1867.9" transform="matrix(3.578115e-002 0.9994 -0.9994 3.578115e-002 4094.0405 -475.5237)" class="st14" width="2.5" height="32"/>
						</g>
						<g>
							
								<rect x="2302.7" y="1883.9" transform="matrix(4.883794e-002 0.9988 -0.9988 4.883794e-002 4087.5574 -495.4341)" class="st14" width="2.5" height="29.2"/>
						</g>
					</g>
					<path class="st20" d="M2425.7,1641.7c0,0,32.3,82.7-76.3,185.1c0,0,78.9-9.9,112.3-63.3
						C2495.2,1710.1,2455.9,1637.5,2425.7,1641.7z"/>
					<path class="st5" d="M2425.7,1443.8c0,0,94,37.3,136.9,143.7s-37.1,327.4-197.6,314.1l-15.6-74.9c0,0,56.4-36.3,81.9-88
						s-5.7-97.1-5.7-97.1s43.9-36.2,42.7-102C2467.1,1473.9,2425.7,1443.8,2425.7,1443.8z"/>
					<path class="st23" d="M2425.7,1443.8c0,0,94,37.3,136.9,143.7s-37.1,327.4-197.6,314.1l-15.6-74.9c0,0,56.4-36.3,81.9-88
						s-5.7-97.1-5.7-97.1"/>
				</g>
				<g>
					<g>
						
							<rect x="2032" y="2621.7" transform="matrix(0.7165 0.6976 -0.6976 0.7165 2408.0867 -679.8271)" class="st5" width="16.9" height="2.5"/>
					</g>
					<g>
						
							<rect x="2044.4" y="2613.1" transform="matrix(0.7165 0.6976 -0.6976 0.7165 2405.5884 -690.9041)" class="st5" width="16.9" height="2.5"/>
					</g>
					<g>
						
							<rect x="2038.4" y="2617.2" transform="matrix(0.7165 0.6976 -0.6976 0.7165 2406.9087 -685.4949)" class="st5" width="16.9" height="2.5"/>
					</g>
				</g>
			</g>
			<g id="XMLID_84_" class="st11">
				<g>
					<path class="st24" d="M1562.7,2611.4c-0.9,0.4-20.6,10.6-13.8,31.6h45.8c-1-8.5-5.9-16.1-13.4-20.5
						C1574,2618.2,1568,2614.6,1562.7,2611.4z"/>
					<path class="st24" d="M1358.3,2581.7v32.3c41.9-0.5,37.3-37.7,37.3-37.7c-16.8-1.1-26.8-2.5-28.6-2.8c-0.2,0-0.3,0-0.3,0h-0.1
						C1362,2573.4,1358.3,2577.1,1358.3,2581.7z"/>
					<path class="st3" d="M1513.5,2580.4c-3.4-2.2-7.1-4.5-11.1-7c0,0-4.7,0.6-13,1.4c-12.1,1.1-31.7,2.6-55.1,2.6
						c-2.1,0-4.1,0-6.1-0.1c-12.7-0.1-23.6-0.6-32.6-1.1c0,0,4.6,37.2-37.3,37.7v29.1h190.7c-6.8-21.1,12.9-31.2,13.8-31.6
						c-11.1-6.8-19.4-12-30.6-19.1C1526.8,2588.8,1520.8,2585,1513.5,2580.4z"/>
					<path class="st17" d="M1050.7,2549.7v23.7c0,0,0.1,0,0.3,0c3.2,0.4,32.4,3.5,61.2,3.9c2,0.1,4,0.1,6.1,0.1
						c24.7,0,45.1-1.6,56.9-2.7c6.8-0.7,10.7-1.3,10.7-1.3v-23.7h-124.9H1050.7z"/>
					<path class="st18" d="M1042.6,2536.7l19.2-633.3l2.4,0.1c5.2,0,10.3-0.5,15.2-1.5c35.8-7.1,62.7-38.6,62.7-76.5h56.4h83.7
						l-29.7,249.5l-55,461.8l-1.5,13h-10.2h-124.9h-10.3h-8.5L1042.6,2536.7z"/>
					<path class="st17" d="M1366.7,2549.7v23.7c0,0,0.1,0,0.3,0c3.2,0.4,32.4,3.5,61.2,3.9c2,0.1,4,0.1,6.1,0.1
						c23.4,0,43-1.4,55.1-2.6c8-0.8,12.5-1.4,12.5-1.4v-23.7h-6.2H1366.7z"/>
					<path class="st18" d="M1282.2,1825.5h56.4c0,36.2,22.8,66.5,63.2,75.4c7.7,1.7,16,2.6,25,2.6l83.5,633.3l1.7,13h-10.2h-6.2
						h-129h-11.4l-2.8-13l-100-461.8L1282.2,1825.5z"/>
					<path class="st2" d="M1357.2,2643v1.1c0,5.8,4.7,10.5,10.5,10.5h219.9c2.3,0,4.4-0.9,5.9-2.4c1.5-1.5,2.4-3.6,2.4-5.8
						c0-1.1-0.1-2.2-0.2-3.3h-46.2H1357.2z"/>
					<g>
						<polygon class="st19" points="1282.2,1825.5 1272.6,2167.8 1252.5,2074.9 						"/>
						<path class="st19" d="M1064.2,1825.5l-2.4,77.9l2.4,0.1c5.2,0,10.3-0.5,15.2-1.5c35.8-7.1,62.7-38.6,62.7-76.5H1064.2z"/>
						<path class="st19" d="M1416.6,1825.5h-78c0,36.2,22.8,66.6,63.2,75.4c7.7,1.7,16.1,2.6,25,2.6L1416.6,1825.5z"/>
					</g>
					<g>
						<g>
							<g id="XMLID_86_">
								<g>
									<path class="st3" d="M1048.1,2573.4l-14.2,49.1h0.5c9.2-15.1,27.1-11.1,48.2-11.1h71.3c21.1,0,39.8-4,48.9,11.1h0
										l-13.8-49.1H1048.1z"/>
									<path class="st24" d="M1028.2,2644.5v3.4h181v-3.4c0-7.9-2.3-15.4-6.3-22h0c-9.2-15.1-29.7-11.1-50.8-11.1h-71.3
										c-21.1,0-37.2-4-46.3,11.1C1030.4,2629,1028.2,2636.5,1028.2,2644.5z"/>
									<rect x="1026.8" y="2643" class="st2" width="183.7" height="11.5"/>
								</g>
							</g>
						</g>
						<g>
							<path d="M1080.3,2582.3h79c0.7,0,1.3-0.6,1.3-1.3c0-0.7-0.6-1.3-1.3-1.3h-79c-0.7,0-1.3,0.6-1.3,1.3
								C1079.1,2581.7,1079.6,2582.3,1080.3,2582.3z"/>
						</g>
						<g>
							<path d="M1080.3,2589.8h79c0.7,0,1.3-0.6,1.3-1.3s-0.6-1.3-1.3-1.3h-79c-0.7,0-1.3,0.6-1.3,1.3S1079.6,2589.8,1080.3,2589.8z
								"/>
						</g>
						<g>
							<path d="M1080.3,2597.3h79c0.7,0,1.3-0.6,1.3-1.3c0-0.7-0.6-1.3-1.3-1.3h-79c-0.7,0-1.3,0.6-1.3,1.3
								C1079.1,2596.8,1079.6,2597.3,1080.3,2597.3z"/>
						</g>
					</g>
				</g>
				<g>
					<polygon class="st17" points="1188.1,1317.3 1198.8,1403.6 1277,1391.6 1277.6,1389.4 1280.4,1378.6 1283.3,1367.4 
						1283.3,1367.3 1293.9,1326.6 					"/>
					<path class="st17" d="M1182.1,1285.7c1.8,49.2,32.7,94.7,81.9,92.9c49.2-1.8,87.3-1.5,96.3-99.3c4.5-49-43.1-87.7-92.3-85.9
						C1218.8,1195.2,1180.3,1236.5,1182.1,1285.7z"/>
					<path class="st21" d="M1240.7,1161c0,0,1.1-70.9,106.5-66c97.1,4.5,101.8,225.6-72.8,143.3c-15.2-7.2-32.5-8.5-48.5-3.2
						c-2.5,0.8-4.7,1.7-6.4,2.5c-9.4,4.6-8,30.8-8,30.8s-12.5-9.9-16.1,7.3c-3.6,17.1,12.4,19.7,12.4,19.7l-10.5,44.6
						c0,0-16.7-27.2-28.1-74.5C1158.1,1219.5,1195.8,1146.9,1240.7,1161z"/>
					<path class="st14" d="M1275,1401.6l5.4-23c0,0-56.7,4.6-77.1-29.8C1203.3,1348.8,1203.7,1395.7,1275,1401.6z"/>
				</g>
				<g>
					<g>
						<path d="M1494.7,2600.8c0.3,0,0.6-0.1,0.9-0.4l18.7-19.2c0.5-0.5,0.5-1.3,0-1.8c-0.5-0.5-1.3-0.5-1.8,0l-18.7,19.2
							c-0.5,0.5-0.5,1.3,0,1.8C1494.1,2600.7,1494.4,2600.8,1494.7,2600.8z"/>
					</g>
					<g>
						<path d="M1504.1,2607.2c0.3,0,0.6-0.1,0.9-0.4l18.7-19.2c0.5-0.5,0.5-1.3,0-1.8c-0.5-0.5-1.3-0.5-1.8,0l-18.7,19.2
							c-0.5,0.5-0.5,1.3,0,1.8C1503.5,2607.1,1503.8,2607.2,1504.1,2607.2z"/>
					</g>
					<g>
						<path d="M1513.5,2612.6c0.3,0,0.6-0.1,0.9-0.4l18.6-19.1c0.5-0.5,0.5-1.3,0-1.8c-0.5-0.5-1.2-0.5-1.7,0l-0.1,0.1l-18.7,19.1
							c-0.5,0.5-0.5,1.3,0,1.8C1512.8,2612.5,1513.1,2612.6,1513.5,2612.6z"/>
					</g>
					<g>
						<g>
							<g>
								<path d="M1402.4,1905.8c0.1,0,0.1,0,0.2,0c0.7-0.1,1.2-0.7,1.1-1.4l-0.5-3.7c-0.1-0.7-0.7-1.2-1.4-1.1
									c-0.7,0.1-1.2,0.7-1.1,1.4l0.5,3.7C1401.2,1905.4,1401.8,1905.8,1402.4,1905.8z"/>
							</g>
							<g>
								<path d="M1492.9,2538.8l-1.1-7.4c-0.1-0.7,0.4-1.3,1.1-1.4c0.7-0.1,1.3,0.4,1.4,1.1l1.1,7.4c0.1,0.7-0.4,1.3-1.1,1.4
									c-0.1,0-0.1,0-0.2,0C1493.5,2539.9,1493,2539.4,1492.9,2538.8z M1490.7,2524.1l-1.1-7.4c-0.1-0.7,0.4-1.3,1.1-1.4
									c0.7-0.1,1.3,0.4,1.4,1.1l1.1,7.4c0.1,0.7-0.4,1.3-1.1,1.4c-0.1,0-0.1,0-0.2,0C1491.4,2525.1,1490.8,2524.7,1490.7,2524.1z
									 M1488.6,2509.3l-1.1-7.4c-0.1-0.7,0.4-1.3,1.1-1.4c0.7-0.1,1.3,0.4,1.4,1.1l1.1,7.4c0.1,0.7-0.4,1.3-1.1,1.4
									c-0.1,0-0.1,0-0.2,0C1489.2,2510.4,1488.7,2509.9,1488.6,2509.3z M1486.5,2494.6l-1.1-7.4c-0.1-0.7,0.4-1.3,1.1-1.4
									c0.7-0.1,1.3,0.4,1.4,1.1l1.1,7.4c0.1,0.7-0.4,1.3-1.1,1.4c-0.1,0-0.1,0-0.2,0C1487.1,2495.7,1486.6,2495.2,1486.5,2494.6z
									 M1484.3,2479.8l-1.1-7.4c-0.1-0.7,0.4-1.3,1.1-1.4c0.7-0.1,1.3,0.4,1.4,1.1l1.1,7.4c0.1,0.7-0.4,1.3-1.1,1.4
									c-0.1,0-0.1,0-0.2,0C1485,2480.9,1484.4,2480.5,1484.3,2479.8z M1482.2,2465.1l-1.1-7.4c-0.1-0.7,0.4-1.3,1.1-1.4
									c0.7-0.1,1.3,0.4,1.4,1.1l1.1,7.4c0.1,0.7-0.4,1.3-1.1,1.4c-0.1,0-0.1,0-0.2,0C1482.8,2466.2,1482.3,2465.7,1482.2,2465.1z
									 M1480.1,2450.3l-1.1-7.4c-0.1-0.7,0.4-1.3,1.1-1.4c0.7-0.1,1.3,0.4,1.4,1.1l1.1,7.4c0.1,0.7-0.4,1.3-1.1,1.4
									c-0.1,0-0.1,0-0.2,0C1480.7,2451.4,1480.2,2451,1480.1,2450.3z M1477.9,2435.6l-1.1-7.4c-0.1-0.7,0.4-1.3,1.1-1.4
									c0.7-0.1,1.3,0.4,1.4,1.1l1.1,7.4c0.1,0.7-0.4,1.3-1.1,1.4c-0.1,0-0.1,0-0.2,0C1478.6,2436.7,1478,2436.2,1477.9,2435.6z
									 M1475.8,2420.9l-1.1-7.4c-0.1-0.7,0.4-1.3,1.1-1.4c0.7-0.1,1.3,0.4,1.4,1.1l1.1,7.4c0.1,0.7-0.4,1.3-1.1,1.4
									c-0.1,0-0.1,0-0.2,0C1476.4,2421.9,1475.9,2421.5,1475.8,2420.9z M1473.7,2406.1l-1.1-7.4c-0.1-0.7,0.4-1.3,1.1-1.4
									c0.7-0.1,1.3,0.4,1.4,1.1l1.1,7.4c0.1,0.7-0.4,1.3-1.1,1.4c-0.1,0-0.1,0-0.2,0C1474.3,2407.2,1473.8,2406.7,1473.7,2406.1z
									 M1471.5,2391.4l-1.1-7.4c-0.1-0.7,0.4-1.3,1.1-1.4c0.7-0.1,1.3,0.4,1.4,1.1l1.1,7.4c0.1,0.7-0.4,1.3-1.1,1.4
									c-0.1,0-0.1,0-0.2,0C1472.2,2392.4,1471.6,2392,1471.5,2391.4z M1469.4,2376.6l-1.1-7.4c-0.1-0.7,0.4-1.3,1.1-1.4
									c0.7-0.1,1.3,0.4,1.4,1.1l1.1,7.4c0.1,0.7-0.4,1.3-1.1,1.4c-0.1,0-0.1,0-0.2,0C1470,2377.7,1469.5,2377.2,1469.4,2376.6z
									 M1467.3,2361.9l-1.1-7.4c-0.1-0.7,0.4-1.3,1.1-1.4c0.7-0.1,1.3,0.4,1.4,1.1l1.1,7.4c0.1,0.7-0.4,1.3-1.1,1.4
									c-0.1,0-0.1,0-0.2,0C1467.9,2362.9,1467.4,2362.5,1467.3,2361.9z M1465.1,2347.1l-1.1-7.4c-0.1-0.7,0.4-1.3,1.1-1.4
									c0.7-0.1,1.3,0.4,1.4,1.1l1.1,7.4c0.1,0.7-0.4,1.3-1.1,1.4c-0.1,0-0.1,0-0.2,0C1465.8,2348.2,1465.2,2347.8,1465.1,2347.1z
									 M1463,2332.4l-1.1-7.4c-0.1-0.7,0.4-1.3,1.1-1.4c0.7-0.1,1.3,0.4,1.4,1.1l1.1,7.4c0.1,0.7-0.4,1.3-1.1,1.4
									c-0.1,0-0.1,0-0.2,0C1463.6,2333.5,1463.1,2333,1463,2332.4z M1460.9,2317.6l-1.1-7.4c-0.1-0.7,0.4-1.3,1.1-1.4
									c0.7-0.1,1.3,0.4,1.4,1.1l1.1,7.4c0.1,0.7-0.4,1.3-1.1,1.4c-0.1,0-0.1,0-0.2,0C1461.5,2318.7,1461,2318.3,1460.9,2317.6z
									 M1458.7,2302.9l-1.1-7.4c-0.1-0.7,0.4-1.3,1.1-1.4c0.7-0.1,1.3,0.4,1.4,1.1l1.1,7.4c0.1,0.7-0.4,1.3-1.1,1.4
									c-0.1,0-0.1,0-0.2,0C1459.4,2304,1458.8,2303.5,1458.7,2302.9z M1456.6,2288.1l-1.1-7.4c-0.1-0.7,0.4-1.3,1.1-1.4
									c0.7-0.1,1.3,0.4,1.4,1.1l1.1,7.4c0.1,0.7-0.4,1.3-1.1,1.4c-0.1,0-0.1,0-0.2,0C1457.2,2289.2,1456.7,2288.8,1456.6,2288.1z
									 M1454.5,2273.4l-1.1-7.4c-0.1-0.7,0.4-1.3,1.1-1.4c0.7-0.1,1.3,0.4,1.4,1.1l1.1,7.4c0.1,0.7-0.4,1.3-1.1,1.4
									c-0.1,0-0.1,0-0.2,0C1455.1,2274.5,1454.6,2274,1454.5,2273.4z M1452.3,2258.7l-1.1-7.4c-0.1-0.7,0.4-1.3,1.1-1.4
									c0.7-0.1,1.3,0.4,1.4,1.1l1.1,7.4c0.1,0.7-0.4,1.3-1.1,1.4c-0.1,0-0.1,0-0.2,0C1453,2259.7,1452.4,2259.3,1452.3,2258.7z
									 M1450.2,2243.9l-1.1-7.4c-0.1-0.7,0.4-1.3,1.1-1.4c0.7-0.1,1.3,0.4,1.4,1.1l1.1,7.4c0.1,0.7-0.4,1.3-1.1,1.4
									c-0.1,0-0.1,0-0.2,0C1450.8,2245,1450.3,2244.5,1450.2,2243.9z M1448.1,2229.2l-1.1-7.4c-0.1-0.7,0.4-1.3,1.1-1.4
									c0.7-0.1,1.3,0.4,1.4,1.1l1.1,7.4c0.1,0.7-0.4,1.3-1.1,1.4c-0.1,0-0.1,0-0.2,0C1448.7,2230.2,1448.2,2229.8,1448.1,2229.2z
									 M1445.9,2214.4l-1.1-7.4c-0.1-0.7,0.4-1.3,1.1-1.4c0.7-0.1,1.3,0.4,1.4,1.1l1.1,7.4c0.1,0.7-0.4,1.3-1.1,1.4
									c-0.1,0-0.1,0-0.2,0C1446.6,2215.5,1446,2215,1445.9,2214.4z M1443.8,2199.7l-1.1-7.4c-0.1-0.7,0.4-1.3,1.1-1.4
									c0.7-0.1,1.3,0.4,1.4,1.1l1.1,7.4c0.1,0.7-0.4,1.3-1.1,1.4c-0.1,0-0.1,0-0.2,0C1444.4,2200.7,1443.9,2200.3,1443.8,2199.7z
									 M1441.7,2184.9l-1.1-7.4c-0.1-0.7,0.4-1.3,1.1-1.4c0.7-0.1,1.3,0.4,1.4,1.1l1.1,7.4c0.1,0.7-0.4,1.3-1.1,1.4
									c-0.1,0-0.1,0-0.2,0C1442.3,2186,1441.8,2185.6,1441.7,2184.9z M1439.5,2170.2l-1.1-7.4c-0.1-0.7,0.4-1.3,1.1-1.4
									c0.7-0.1,1.3,0.4,1.4,1.1l1.1,7.4c0.1,0.7-0.4,1.3-1.1,1.4c-0.1,0-0.1,0-0.2,0C1440.2,2171.3,1439.6,2170.8,1439.5,2170.2z
									 M1437.4,2155.4l-1.1-7.4c-0.1-0.7,0.4-1.3,1.1-1.4c0.7-0.1,1.3,0.4,1.4,1.1l1.1,7.4c0.1,0.7-0.4,1.3-1.1,1.4
									c-0.1,0-0.1,0-0.2,0C1438,2156.5,1437.5,2156.1,1437.4,2155.4z M1435.3,2140.7l-1.1-7.4c-0.1-0.7,0.4-1.3,1.1-1.4
									c0.7-0.1,1.3,0.4,1.4,1.1l1.1,7.4c0.1,0.7-0.4,1.3-1.1,1.4c-0.1,0-0.1,0-0.2,0C1435.9,2141.8,1435.4,2141.3,1435.3,2140.7z
									 M1433.1,2125.9l-1.1-7.4c-0.1-0.7,0.4-1.3,1.1-1.4c0.7-0.1,1.3,0.4,1.4,1.1l1.1,7.4c0.1,0.7-0.4,1.3-1.1,1.4
									c-0.1,0-0.1,0-0.2,0C1433.8,2127,1433.2,2126.6,1433.1,2125.9z M1431,2111.2l-1.1-7.4c-0.1-0.7,0.4-1.3,1.1-1.4
									c0.7-0.1,1.3,0.4,1.4,1.1l1.1,7.4c0.1,0.7-0.4,1.3-1.1,1.4c-0.1,0-0.1,0-0.2,0C1431.6,2112.3,1431.1,2111.8,1431,2111.2z
									 M1428.9,2096.5l-1.1-7.4c-0.1-0.7,0.4-1.3,1.1-1.4c0.7-0.1,1.3,0.4,1.4,1.1l1.1,7.4c0.1,0.7-0.4,1.3-1.1,1.4
									c-0.1,0-0.1,0-0.2,0C1429.5,2097.5,1429,2097.1,1428.9,2096.5z M1426.7,2081.7l-1.1-7.4c-0.1-0.7,0.4-1.3,1.1-1.4
									c0.7-0.1,1.3,0.4,1.4,1.1l1.1,7.4c0.1,0.7-0.4,1.3-1.1,1.4c-0.1,0-0.1,0-0.2,0C1427.4,2082.8,1426.8,2082.3,1426.7,2081.7z
									 M1424.6,2067l-1.1-7.4c-0.1-0.7,0.4-1.3,1.1-1.4c0.7-0.1,1.3,0.4,1.4,1.1l1.1,7.4c0.1,0.7-0.4,1.3-1.1,1.4
									c-0.1,0-0.1,0-0.2,0C1425.2,2068,1424.7,2067.6,1424.6,2067z M1422.5,2052.2l-1.1-7.4c-0.1-0.7,0.4-1.3,1.1-1.4
									c0.7-0.1,1.3,0.4,1.4,1.1l1.1,7.4c0.1,0.7-0.4,1.3-1.1,1.4c-0.1,0-0.1,0-0.2,0C1423.1,2053.3,1422.6,2052.8,1422.5,2052.2z
									 M1420.3,2037.5l-1.1-7.4c-0.1-0.7,0.4-1.3,1.1-1.4c0.7-0.1,1.3,0.4,1.4,1.1l1.1,7.4c0.1,0.7-0.4,1.3-1.1,1.4
									c-0.1,0-0.1,0-0.2,0C1421,2038.5,1420.4,2038.1,1420.3,2037.5z M1418.2,2022.7l-1.1-7.4c-0.1-0.7,0.4-1.3,1.1-1.4
									c0.7-0.1,1.3,0.4,1.4,1.1l1.1,7.4c0.1,0.7-0.4,1.3-1.1,1.4c-0.1,0-0.1,0-0.2,0C1418.8,2023.8,1418.3,2023.4,1418.2,2022.7z
									 M1416.1,2008l-1.1-7.4c-0.1-0.7,0.4-1.3,1.1-1.4c0.7-0.1,1.3,0.4,1.4,1.1l1.1,7.4c0.1,0.7-0.4,1.3-1.1,1.4
									c-0.1,0-0.1,0-0.2,0C1416.7,2009.1,1416.2,2008.6,1416.1,2008z M1413.9,1993.2l-1.1-7.4c-0.1-0.7,0.4-1.3,1.1-1.4
									c0.7-0.1,1.3,0.4,1.4,1.1l1.1,7.4c0.1,0.7-0.4,1.3-1.1,1.4c-0.1,0-0.1,0-0.2,0C1414.6,1994.3,1414,1993.9,1413.9,1993.2z
									 M1411.8,1978.5l-1.1-7.4c-0.1-0.7,0.4-1.3,1.1-1.4c0.7-0.1,1.3,0.4,1.4,1.1l1.1,7.4c0.1,0.7-0.4,1.3-1.1,1.4
									c-0.1,0-0.1,0-0.2,0C1412.4,1979.6,1411.9,1979.1,1411.8,1978.5z M1409.7,1963.7l-1.1-7.4c-0.1-0.7,0.4-1.3,1.1-1.4
									c0.7-0.1,1.3,0.4,1.4,1.1l1.1,7.4c0.1,0.7-0.4,1.3-1.1,1.4c-0.1,0-0.1,0-0.2,0C1410.3,1964.8,1409.7,1964.4,1409.7,1963.7z
									 M1407.5,1949l-1.1-7.4c-0.1-0.7,0.4-1.3,1.1-1.4c0.7-0.1,1.3,0.4,1.4,1.1l1.1,7.4c0.1,0.7-0.4,1.3-1.1,1.4
									c-0.1,0-0.1,0-0.2,0C1408.2,1950.1,1407.6,1949.6,1407.5,1949z M1405.4,1934.3l-1.1-7.4c-0.1-0.7,0.4-1.3,1.1-1.4
									c0.7-0.1,1.3,0.4,1.4,1.1l1.1,7.4c0.1,0.7-0.4,1.3-1.1,1.4c-0.1,0-0.1,0-0.2,0C1406,1935.3,1405.5,1934.9,1405.4,1934.3z
									 M1403.3,1919.5l-1.1-7.4c-0.1-0.7,0.4-1.3,1.1-1.4c0.7-0.1,1.3,0.4,1.4,1.1l1.1,7.4c0.1,0.7-0.4,1.3-1.1,1.4
									c-0.1,0-0.1,0-0.2,0C1403.9,1920.6,1403.3,1920.1,1403.3,1919.5z"/>
							</g>
							<g>
								<path d="M1495.7,2551c0.1,0,0.1,0,0.2,0c0.7-0.1,1.2-0.7,1.1-1.4l-0.5-3.7c-0.1-0.7-0.7-1.1-1.4-1.1
									c-0.7,0.1-1.2,0.7-1.1,1.4l0.5,3.7C1494.6,2550.5,1495.1,2551,1495.7,2551z"/>
							</g>
						</g>
						<g>
							<path d="M1351.2,2536.7c0-0.7,0.6-1.3,1.3-1.3h7.5c0.7,0,1.3,0.6,1.3,1.3s-0.6,1.3-1.3,1.3h-7.5
								C1351.8,2537.9,1351.2,2537.4,1351.2,2536.7z M1366.2,2536.7c0-0.7,0.6-1.3,1.3-1.3h7.5c0.7,0,1.3,0.6,1.3,1.3
								s-0.6,1.3-1.3,1.3h-7.5C1366.8,2537.9,1366.2,2537.4,1366.2,2536.7z M1381.2,2536.7c0-0.7,0.6-1.3,1.3-1.3h7.5
								c0.7,0,1.3,0.6,1.3,1.3s-0.6,1.3-1.3,1.3h-7.5C1381.8,2537.9,1381.2,2537.4,1381.2,2536.7z M1396.2,2536.7
								c0-0.7,0.6-1.3,1.3-1.3h7.5c0.7,0,1.3,0.6,1.3,1.3s-0.6,1.3-1.3,1.3h-7.5C1396.8,2537.9,1396.2,2537.4,1396.2,2536.7z
								 M1411.2,2536.7c0-0.7,0.6-1.3,1.3-1.3h7.5c0.7,0,1.3,0.6,1.3,1.3s-0.6,1.3-1.3,1.3h-7.5
								C1411.8,2537.9,1411.2,2537.4,1411.2,2536.7z M1426.2,2536.7c0-0.7,0.6-1.3,1.3-1.3h7.5c0.7,0,1.3,0.6,1.3,1.3
								s-0.6,1.3-1.3,1.3h-7.5C1426.8,2537.9,1426.2,2537.4,1426.2,2536.7z M1441.2,2536.7c0-0.7,0.6-1.3,1.3-1.3h7.5
								c0.7,0,1.3,0.6,1.3,1.3s-0.6,1.3-1.3,1.3h-7.5C1441.8,2537.9,1441.2,2537.4,1441.2,2536.7z M1456.2,2536.7
								c0-0.7,0.6-1.3,1.3-1.3h7.5c0.7,0,1.3,0.6,1.3,1.3s-0.6,1.3-1.3,1.3h-7.5C1456.8,2537.9,1456.2,2537.4,1456.2,2536.7z
								 M1471.2,2536.7c0-0.7,0.6-1.3,1.3-1.3h7.5c0.7,0,1.3,0.6,1.3,1.3s-0.6,1.3-1.3,1.3h-7.5
								C1471.8,2537.9,1471.2,2537.4,1471.2,2536.7z M1486.2,2536.7c0-0.7,0.6-1.3,1.3-1.3h7.5c0.7,0,1.3,0.6,1.3,1.3
								s-0.6,1.3-1.3,1.3h-7.5C1486.8,2537.9,1486.2,2537.4,1486.2,2536.7z M1501.2,2536.7c0-0.7,0.6-1.3,1.3-1.3h7.5
								c0.7,0,1.3,0.6,1.3,1.3s-0.6,1.3-1.3,1.3h-7.5C1501.8,2537.9,1501.2,2537.4,1501.2,2536.7z"/>
						</g>
						<g>
							<path d="M1060.9,2551c-0.7,0-1.2-0.6-1.2-1.3l0.1-3c0-0.7,0.6-1.2,1.3-1.2c0.7,0,1.2,0.6,1.2,1.3l-0.1,3
								C1062.2,2550.4,1061.6,2551,1060.9,2551C1060.9,2551,1060.9,2551,1060.9,2551z M1061.2,2540.4c-0.7,0-1.2-0.6-1.2-1.3
								l0.2-7.5c0-0.7,0.6-1.2,1.3-1.2c0.7,0,1.2,0.6,1.2,1.3l-0.2,7.5C1062.5,2539.9,1061.9,2540.4,1061.2,2540.4
								C1061.2,2540.4,1061.2,2540.4,1061.2,2540.4z M1061.6,2525.4c-0.7,0-1.2-0.6-1.2-1.3l0.2-7.5c0-0.7,0.6-1.2,1.3-1.2
								c0.7,0,1.2,0.6,1.2,1.3l-0.2,7.5C1062.9,2524.9,1062.3,2525.4,1061.6,2525.4C1061.6,2525.4,1061.6,2525.4,1061.6,2525.4z
								 M1062,2510.5c-0.7,0-1.2-0.6-1.2-1.3l0.2-7.5c0-0.7,0.6-1.2,1.3-1.2c0.7,0,1.2,0.6,1.2,1.3l-0.2,7.5
								C1063.3,2509.9,1062.8,2510.5,1062,2510.5C1062.1,2510.5,1062.1,2510.5,1062,2510.5z M1062.5,2495.5c-0.7,0-1.2-0.6-1.2-1.3
								l0.2-7.5c0-0.7,0.6-1.2,1.3-1.2c0.7,0,1.2,0.6,1.2,1.3l-0.2,7.5C1063.7,2494.9,1063.2,2495.5,1062.5,2495.5
								C1062.5,2495.5,1062.5,2495.5,1062.5,2495.5z M1062.9,2480.5c-0.7,0-1.2-0.6-1.2-1.3l0.2-7.5c0-0.7,0.6-1.2,1.3-1.2
								c0.7,0,1.2,0.6,1.2,1.3l-0.2,7.5C1064.2,2479.9,1063.6,2480.5,1062.9,2480.5C1062.9,2480.5,1062.9,2480.5,1062.9,2480.5z
								 M1063.3,2465.5c-0.7,0-1.2-0.6-1.2-1.3l0.2-7.5c0-0.7,0.6-1.2,1.3-1.2c0.7,0,1.2,0.6,1.2,1.3l-0.2,7.5
								C1064.6,2464.9,1064,2465.5,1063.3,2465.5C1063.4,2465.5,1063.3,2465.5,1063.3,2465.5z M1063.8,2450.5
								c-0.7,0-1.2-0.6-1.2-1.3l0.2-7.5c0-0.7,0.6-1.2,1.3-1.2c0.7,0,1.2,0.6,1.2,1.3l-0.2,7.5
								C1065,2449.9,1064.5,2450.5,1063.8,2450.5C1063.8,2450.5,1063.8,2450.5,1063.8,2450.5z M1064.2,2435.5
								c-0.7,0-1.2-0.6-1.2-1.3l0.2-7.5c0-0.7,0.6-1.2,1.3-1.2c0.7,0,1.2,0.6,1.2,1.3l-0.2,7.5
								C1065.5,2434.9,1064.9,2435.5,1064.2,2435.5C1064.2,2435.5,1064.2,2435.5,1064.2,2435.5z M1064.6,2420.5
								c-0.7,0-1.2-0.6-1.2-1.3l0.2-7.5c0-0.7,0.6-1.2,1.3-1.2c0.7,0,1.2,0.6,1.2,1.3l-0.2,7.5
								C1065.9,2420,1065.3,2420.5,1064.6,2420.5C1064.6,2420.5,1064.6,2420.5,1064.6,2420.5z M1065,2405.5c-0.7,0-1.2-0.6-1.2-1.3
								l0.2-7.5c0-0.7,0.6-1.2,1.3-1.2c0.7,0,1.2,0.6,1.2,1.3l-0.2,7.5C1066.3,2405,1065.8,2405.5,1065,2405.5
								C1065.1,2405.5,1065.1,2405.5,1065,2405.5z M1065.5,2390.5c-0.7,0-1.2-0.6-1.2-1.3l0.2-7.5c0-0.7,0.5-1.2,1.3-1.2
								c0.7,0,1.2,0.6,1.2,1.3l-0.2,7.5C1066.7,2390,1066.2,2390.5,1065.5,2390.5C1065.5,2390.5,1065.5,2390.5,1065.5,2390.5z
								 M1065.9,2375.5c-0.7,0-1.2-0.6-1.2-1.3l0.2-7.5c0-0.7,0.6-1.2,1.3-1.2c0.7,0,1.2,0.6,1.2,1.3l-0.2,7.5
								C1067.2,2375,1066.6,2375.5,1065.9,2375.5C1065.9,2375.5,1065.9,2375.5,1065.9,2375.5z M1066.3,2360.5
								c-0.7,0-1.2-0.6-1.2-1.3l0.2-7.5c0-0.7,0.6-1.2,1.3-1.2c0.7,0,1.2,0.6,1.2,1.3l-0.2,7.5
								C1067.6,2360,1067,2360.5,1066.3,2360.5C1066.4,2360.5,1066.3,2360.5,1066.3,2360.5z M1066.8,2345.5c-0.7,0-1.2-0.6-1.2-1.3
								l0.2-7.5c0-0.7,0.6-1.2,1.3-1.2c0.7,0,1.2,0.6,1.2,1.3l-0.2,7.5C1068,2345,1067.5,2345.5,1066.8,2345.5
								C1066.8,2345.5,1066.8,2345.5,1066.8,2345.5z M1067.2,2330.5c-0.7,0-1.2-0.6-1.2-1.3l0.2-7.5c0-0.7,0.6-1.2,1.3-1.2
								c0.7,0,1.2,0.6,1.2,1.3l-0.2,7.5C1068.4,2330,1067.9,2330.5,1067.2,2330.5C1067.2,2330.5,1067.2,2330.5,1067.2,2330.5z
								 M1067.6,2315.5c-0.7,0-1.2-0.6-1.2-1.3l0.2-7.5c0-0.7,0.6-1.2,1.3-1.2c0.7,0,1.2,0.6,1.2,1.3l-0.2,7.5
								C1068.9,2315,1068.3,2315.5,1067.6,2315.5C1067.6,2315.5,1067.6,2315.5,1067.6,2315.5z M1068,2300.5c-0.7,0-1.2-0.6-1.2-1.3
								l0.2-7.5c0-0.7,0.6-1.2,1.3-1.2c0.7,0,1.2,0.6,1.2,1.3l-0.2,7.5C1069.3,2300,1068.7,2300.5,1068,2300.5
								C1068.1,2300.5,1068,2300.5,1068,2300.5z M1068.5,2285.5c-0.7,0-1.2-0.6-1.2-1.3l0.2-7.5c0-0.7,0.6-1.2,1.3-1.2
								c0.7,0,1.2,0.6,1.2,1.3l-0.2,7.5C1069.7,2285,1069.2,2285.5,1068.5,2285.5C1068.5,2285.5,1068.5,2285.5,1068.5,2285.5z
								 M1068.9,2270.5c-0.7,0-1.2-0.6-1.2-1.3l0.2-7.5c0-0.7,0.6-1.2,1.3-1.2c0.7,0,1.2,0.6,1.2,1.3l-0.2,7.5
								C1070.2,2270,1069.6,2270.5,1068.9,2270.5C1068.9,2270.5,1068.9,2270.5,1068.9,2270.5z M1069.3,2255.6
								c-0.7,0-1.2-0.6-1.2-1.3l0.2-7.5c0-0.7,0.6-1.2,1.3-1.2c0.7,0,1.2,0.6,1.2,1.3l-0.2,7.5
								C1070.6,2255,1070,2255.6,1069.3,2255.6C1069.3,2255.6,1069.3,2255.6,1069.3,2255.6z M1069.7,2240.6c-0.7,0-1.2-0.6-1.2-1.3
								l0.2-7.5c0-0.7,0.6-1.3,1.3-1.2c0.7,0,1.2,0.6,1.2,1.3l-0.2,7.5C1071,2240,1070.5,2240.6,1069.7,2240.6
								C1069.8,2240.6,1069.8,2240.6,1069.7,2240.6z M1070.2,2225.6c-0.7,0-1.2-0.6-1.2-1.3l0.2-7.5c0-0.7,0.6-1.2,1.3-1.2
								c0.7,0,1.2,0.6,1.2,1.3l-0.2,7.5C1071.4,2225,1070.9,2225.6,1070.2,2225.6C1070.2,2225.6,1070.2,2225.6,1070.2,2225.6z
								 M1070.6,2210.6c-0.7,0-1.2-0.6-1.2-1.3l0.2-7.5c0-0.7,0.6-1.2,1.3-1.2c0.7,0,1.2,0.6,1.2,1.3l-0.2,7.5
								C1071.9,2210,1071.3,2210.6,1070.6,2210.6C1070.6,2210.6,1070.6,2210.6,1070.6,2210.6z M1071,2195.6c-0.7,0-1.2-0.6-1.2-1.3
								l0.2-7.5c0-0.7,0.6-1.2,1.3-1.2c0.7,0,1.2,0.6,1.2,1.3l-0.2,7.5C1072.3,2195,1071.7,2195.6,1071,2195.6
								C1071.1,2195.6,1071,2195.6,1071,2195.6z M1071.5,2180.6c-0.7,0-1.2-0.6-1.2-1.3l0.2-7.5c0-0.7,0.5-1.2,1.3-1.2
								c0.7,0,1.2,0.6,1.2,1.3l-0.2,7.5C1072.7,2180.1,1072.2,2180.6,1071.5,2180.6C1071.5,2180.6,1071.5,2180.6,1071.5,2180.6z
								 M1071.9,2165.6c-0.7,0-1.2-0.6-1.2-1.3l0.2-7.5c0-0.7,0.6-1.2,1.3-1.2c0.7,0,1.2,0.6,1.2,1.3l-0.2,7.5
								C1073.1,2165.1,1072.6,2165.6,1071.9,2165.6C1071.9,2165.6,1071.9,2165.6,1071.9,2165.6z M1072.3,2150.6
								c-0.7,0-1.2-0.6-1.2-1.3l0.2-7.5c0-0.7,0.6-1.2,1.3-1.2c0.7,0,1.2,0.6,1.2,1.3l-0.2,7.5
								C1073.6,2150.1,1073,2150.6,1072.3,2150.6C1072.3,2150.6,1072.3,2150.6,1072.3,2150.6z M1072.7,2135.6
								c-0.7,0-1.2-0.6-1.2-1.3l0.2-7.5c0-0.7,0.6-1.2,1.3-1.2c0.7,0,1.2,0.6,1.2,1.3l-0.2,7.5
								C1074,2135.1,1073.4,2135.6,1072.7,2135.6C1072.8,2135.6,1072.8,2135.6,1072.7,2135.6z M1073.2,2120.6
								c-0.7,0-1.2-0.6-1.2-1.3l0.2-7.5c0-0.7,0.6-1.2,1.3-1.2c0.7,0,1.2,0.6,1.2,1.3l-0.2,7.5
								C1074.4,2120.1,1073.9,2120.6,1073.2,2120.6C1073.2,2120.6,1073.2,2120.6,1073.2,2120.6z M1073.6,2105.6
								c-0.7,0-1.2-0.6-1.2-1.3l0.2-7.5c0-0.7,0.6-1.2,1.3-1.2c0.7,0,1.2,0.6,1.2,1.3l-0.2,7.5
								C1074.9,2105.1,1074.3,2105.6,1073.6,2105.6C1073.6,2105.6,1073.6,2105.6,1073.6,2105.6z M1074,2090.6
								c-0.7,0-1.2-0.6-1.2-1.3l0.2-7.5c0-0.7,0.6-1.2,1.3-1.2c0.7,0,1.2,0.6,1.2,1.3l-0.2,7.5
								C1075.3,2090.1,1074.7,2090.6,1074,2090.6C1074,2090.6,1074,2090.6,1074,2090.6z M1074.4,2075.6c-0.7,0-1.2-0.6-1.2-1.3
								l0.2-7.5c0-0.7,0.6-1.2,1.3-1.2c0.7,0,1.2,0.6,1.2,1.3l-0.2,7.5C1075.7,2075.1,1075.2,2075.6,1074.4,2075.6
								C1074.5,2075.6,1074.5,2075.6,1074.4,2075.6z M1074.9,2060.6c-0.7,0-1.2-0.6-1.2-1.3l0.2-7.5c0-0.7,0.6-1.2,1.3-1.2
								c0.7,0,1.2,0.6,1.2,1.3l-0.2,7.5C1076.1,2060.1,1075.6,2060.6,1074.9,2060.6C1074.9,2060.6,1074.9,2060.6,1074.9,2060.6z
								 M1075.3,2045.6c-0.7,0-1.2-0.6-1.2-1.3l0.2-7.5c0-0.7,0.6-1.2,1.3-1.2c0.7,0,1.2,0.6,1.2,1.3l-0.2,7.5
								C1076.6,2045.1,1076,2045.6,1075.3,2045.6C1075.3,2045.6,1075.3,2045.6,1075.3,2045.6z M1075.7,2030.6
								c-0.7,0-1.2-0.6-1.2-1.3l0.2-7.5c0-0.7,0.6-1.2,1.3-1.2c0.7,0,1.2,0.6,1.2,1.3l-0.2,7.5
								C1077,2030.1,1076.4,2030.6,1075.7,2030.6C1075.8,2030.6,1075.7,2030.6,1075.7,2030.6z M1076.2,2015.7
								c-0.7,0-1.2-0.6-1.2-1.3l0.2-7.5c0-0.7,0.6-1.2,1.3-1.2c0.7,0,1.2,0.6,1.2,1.3l-0.2,7.5
								C1077.4,2015.1,1076.9,2015.7,1076.2,2015.7C1076.2,2015.7,1076.2,2015.7,1076.2,2015.7z M1076.6,2000.7
								c-0.7,0-1.2-0.6-1.2-1.3l0.2-7.5c0-0.7,0.6-1.2,1.3-1.2c0.7,0,1.2,0.6,1.2,1.3l-0.2,7.5
								C1077.9,2000.1,1077.3,2000.7,1076.6,2000.7C1076.6,2000.7,1076.6,2000.7,1076.6,2000.7z M1077,1985.7
								c-0.7,0-1.2-0.6-1.2-1.3l0.2-7.5c0-0.7,0.6-1.2,1.3-1.2c0.7,0,1.2,0.6,1.2,1.3l-0.2,7.5
								C1078.3,1985.1,1077.7,1985.7,1077,1985.7C1077,1985.7,1077,1985.7,1077,1985.7z M1077.4,1970.7c-0.7,0-1.2-0.6-1.2-1.3
								l0.2-7.5c0-0.7,0.6-1.2,1.3-1.2c0.7,0,1.2,0.6,1.2,1.3l-0.2,7.5C1078.7,1970.1,1078.2,1970.7,1077.4,1970.7
								C1077.5,1970.7,1077.5,1970.7,1077.4,1970.7z M1077.9,1955.7c-0.7,0-1.2-0.6-1.2-1.3l0.2-7.5c0-0.7,0.6-1.2,1.3-1.2
								c0.7,0,1.2,0.6,1.2,1.3l-0.2,7.5C1079.1,1955.1,1078.6,1955.7,1077.9,1955.7C1077.9,1955.7,1077.9,1955.7,1077.9,1955.7z
								 M1078.3,1940.7c-0.7,0-1.2-0.6-1.2-1.3l0.2-7.5c0-0.7,0.6-1.2,1.3-1.2c0.7,0,1.2,0.6,1.2,1.3l-0.2,7.5
								C1079.6,1940.1,1079,1940.7,1078.3,1940.7C1078.3,1940.7,1078.3,1940.7,1078.3,1940.7z M1078.7,1925.7
								c-0.7,0-1.2-0.6-1.2-1.3l0.2-7.5c0-0.7,0.6-1.2,1.3-1.2c0.7,0,1.2,0.6,1.2,1.3l-0.2,7.5
								C1080,1925.2,1079.4,1925.7,1078.7,1925.7C1078.8,1925.7,1078.7,1925.7,1078.7,1925.7z M1079.2,1910.7
								c-0.7,0-1.2-0.6-1.2-1.3l0.2-7.5c0-0.7,0.6-1.2,1.3-1.2c0.7,0,1.2,0.6,1.2,1.3l-0.2,7.5
								C1080.4,1910.2,1079.9,1910.7,1079.2,1910.7C1079.2,1910.7,1079.2,1910.7,1079.2,1910.7z"/>
						</g>
						<g>
							<path d="M1041.4,2536.7c0-0.7,0.6-1.3,1.3-1.3h4.8c0.7,0,1.3,0.6,1.3,1.3s-0.6,1.3-1.3,1.3h-4.8
								C1041.9,2537.9,1041.4,2537.4,1041.4,2536.7z M1053.7,2536.7c0-0.7,0.6-1.3,1.3-1.3h7.5c0.7,0,1.3,0.6,1.3,1.3
								s-0.6,1.3-1.3,1.3h-7.5C1054.2,2537.9,1053.7,2537.4,1053.7,2536.7z M1068.7,2536.7c0-0.7,0.6-1.3,1.3-1.3h7.5
								c0.7,0,1.3,0.6,1.3,1.3s-0.6,1.3-1.3,1.3h-7.5C1069.2,2537.9,1068.7,2537.4,1068.7,2536.7z M1083.7,2536.7
								c0-0.7,0.6-1.3,1.3-1.3h7.5c0.7,0,1.3,0.6,1.3,1.3s-0.6,1.3-1.3,1.3h-7.5C1084.2,2537.9,1083.7,2537.4,1083.7,2536.7z
								 M1098.7,2536.7c0-0.7,0.6-1.3,1.3-1.3h7.5c0.7,0,1.3,0.6,1.3,1.3s-0.6,1.3-1.3,1.3h-7.5
								C1099.2,2537.9,1098.7,2537.4,1098.7,2536.7z M1113.7,2536.7c0-0.7,0.6-1.3,1.3-1.3h7.5c0.7,0,1.3,0.6,1.3,1.3
								s-0.6,1.3-1.3,1.3h-7.5C1114.2,2537.9,1113.7,2537.4,1113.7,2536.7z M1128.7,2536.7c0-0.7,0.6-1.3,1.3-1.3h7.5
								c0.7,0,1.3,0.6,1.3,1.3s-0.6,1.3-1.3,1.3h-7.5C1129.2,2537.9,1128.7,2537.4,1128.7,2536.7z M1143.7,2536.7
								c0-0.7,0.6-1.3,1.3-1.3h7.5c0.7,0,1.3,0.6,1.3,1.3s-0.6,1.3-1.3,1.3h-7.5C1144.2,2537.9,1143.7,2537.4,1143.7,2536.7z
								 M1158.7,2536.7c0-0.7,0.6-1.3,1.3-1.3h7.5c0.7,0,1.3,0.6,1.3,1.3s-0.6,1.3-1.3,1.3h-7.5
								C1159.2,2537.9,1158.7,2537.4,1158.7,2536.7z M1173.7,2536.7c0-0.7,0.6-1.3,1.3-1.3h7.5c0.7,0,1.3,0.6,1.3,1.3
								s-0.6,1.3-1.3,1.3h-7.5C1174.2,2537.9,1173.7,2537.4,1173.7,2536.7z M1188.7,2536.7c0-0.7,0.6-1.3,1.3-1.3h7.5
								c0.7,0,1.3,0.6,1.3,1.3s-0.6,1.3-1.3,1.3h-7.5C1189.2,2537.9,1188.7,2537.4,1188.7,2536.7z"/>
						</g>
					</g>
				</g>
				<g>
					<path class="st17" d="M1071.7,1882.3l6.7-7c8.5-8.9,21.2-11.4,32-7.4l40,2.3c6.6,0.4,11.7,6.1,11.4,12.7
						c-0.4,6.6-6.1,11.7-12.7,11.4l-8.3-0.5c0.3,0.4,0.7,0.8,1,1.3c1.2,0.1,2.5,0.4,3.7,1l23.5,11c6,2.8,8.6,10,5.8,16
						c-2.2,4.7-7.1,7.3-12,6.9c1,2.9,1,6.2-0.4,9.1c-2.4,5.1-8,7.7-13.3,6.7c-0.2,1.1-0.4,2.1-0.9,3.1c-2.8,6-10,8.6-16,5.8
						l-3.4-1.6c-3.5,3.1-8.7,4.1-13.1,2l-14.7-6.9c-1.7-0.6-3.3-1.4-4.9-2.3l-3.9-1.8c-2.9-1.4-5-3.7-6.1-6.5l-13.3-12.7
						C1060.8,1913.3,1060.3,1894.3,1071.7,1882.3z"/>
					<g>
						<polygon class="st14" points="1163.6,1931.4 1164.8,1929.2 1129.6,1909.6 1128.4,1911.8 						"/>
					</g>
					<g>
						
							<rect x="1133.2" y="1922.5" transform="matrix(-0.4296 0.903 -0.903 -0.4296 3372.4993 1747.0319)" class="st14" width="2.5" height="32.4"/>
					</g>
					<g>
						
							<rect x="1117.6" y="1933.3" transform="matrix(-0.4413 0.8973 -0.8973 -0.4413 3360.7363 1803.8092)" class="st14" width="2.5" height="29.5"/>
					</g>
				</g>
				<g>
					<g>
						<path class="st17" d="M1589.8,1491.3c0-0.1,0-0.1,0-0.2l5.6-44.3c1.2-6.9,8.1-11.5,15.1-9.7c6.1,1.6,9.6,8,8.6,14.2l-1,6
							l17.1-15.5c3.8-3.4,9-4.9,13.9-3.6c3.7,1,5.4,3.1,6.6,5.3l3.1-2.8c4.7-4.2,11.9-4.6,16.6-0.4c4,3.6,4.9,9.1,3,13.6
							c2.4,1.3,4.6,3.3,5.7,6.5c1.7,4.9,0,10.2-3.8,13.7l-0.3,0.3c-0.7,0.6-0.6,1.7,0.1,2.3c1.7,1.5,3.1,3.6,3.3,7.3
							c0.3,4.6-1.6,9.1-5.1,12.1l-10.5,9.4c-1.1,1.5-2.4,2.9-3.8,4.1l-18.1,16.3c-12.3,11.1-31.3,10.1-42.4-2.2l-6.5-7.2
							C1590.5,1509.6,1588.2,1500.2,1589.8,1491.3z"/>
						<g>
							
								<rect x="1624" y="1456.2" transform="matrix(-0.7071 0.7071 -0.7071 -0.7071 3836.4036 1325.8186)" class="st14" width="39.2" height="2.5"/>
						</g>
						<g>
							
								<rect x="1644.6" y="1466.4" transform="matrix(-0.7071 0.7071 -0.7071 -0.7071 3878.1477 1328.938)" class="st14" width="38.4" height="2.5"/>
						</g>
						<g>
							
								<rect x="1651.5" y="1483.5" transform="matrix(-0.7071 0.7071 -0.7071 -0.7071 3897.4192 1355.151)" class="st14" width="33" height="2.5"/>
						</g>
					</g>
					<path class="st3" d="M1104.6,1824.2l309.1,1.2c7.8,0,14-6.6,13.5-14.3l-11.3-180.7v-89.6c0-2.1-0.1-4.1-0.2-6.1
						c-2.8-71.2-55.4-129.7-124-141.6c-0.3,0-0.6-0.1-1-0.1c-8.1-1.4-16.4-2.1-24.8-2.1h-53.1c-20,0-39.1,3.9-56.6,11.1
						c-86.7,30.8-160.2,138.6-160.2,258.4c0,93.3-5.8,185.4,66.9,255.4c2.5-0.7,9.9-2.4,28.6-20.4c11.8-11.3,19.9-37.1,19.9-37.1
						S1106.5,1842.1,1104.6,1824.2z"/>
					<path class="st25" d="M1164.6,1538.3c0,0-17,37.6-29.6,95.9c-12.7,58.3,7.2,190.1,7.2,190.1l-39.5,1.3c0,0-13-86.8-6.8-139.4
						C1102,1633.5,1122.6,1586.9,1164.6,1538.3z"/>
					<path class="st25" d="M1291.3,1393c68.3,12.1,120.7,68.4,123.5,139.5c0.1,2,0.2,4.1,0.2,6.1l1,91.8
						c29,16.3,57.4,18.4,83.6,12.6c78.1-17.4,137.4-106,137.4-106l-53.2-49.4c-43.1,46.9-96.3,68.4-152.1-8.9
						c-3.3-4.6-6.7-8.9-10.2-13.1C1370.4,1405.6,1302.1,1394.6,1291.3,1393z"/>
				</g>
			</g>
		</g>
	</g>
</g>
</svg>
